<?xml version="1.0" encoding="UTF-8" standalone="no"?>
<!DOCTYPE svg PUBLIC "-//W3C//DTD SVG 1.1//EN" "http://www.w3.org/Graphics/SVG/1.1/DTD/svg11.dtd">
<svg width="100%" height="100%" viewBox="0 0 700 700" version="1.1" xmlns="http://www.w3.org/2000/svg" xmlns:xlink="http://www.w3.org/1999/xlink" xml:space="preserve" xmlns:serif="http://www.serif.com/" style="fill-rule:evenodd;clip-rule:evenodd;stroke-linecap:round;stroke-linejoin:round;stroke-miterlimit:1.5;">
    <g transform="matrix(1.11151,0,0,1.11151,-38.8785,-38.0838)">
        <path d="M290.674,317.241L349.153,350L349.153,412.647L349.153,350L407.335,317.241" style="fill:none;stroke:white;stroke-width:44.98px;"/>
        <g>
            <g transform="matrix(0.965886,-0.0195187,-0.0195187,0.988832,23.1647,13.2541)">
                <path d="M482.217,205.201L542.049,239.435" style="fill:none;stroke:white;stroke-width:46.96px;"/>
            </g>
            <path d="M471.564,281.193L542.049,239.435L542.049,301.977" style="fill:none;stroke:white;stroke-width:44.98px;"/>
        </g>
        <g transform="matrix(0.5,-0.866025,0.866025,0.5,-128.029,479.541)">
            <g transform="matrix(0.965886,-0.0195187,-0.0195187,0.988832,23.1647,13.2541)">
                <path d="M482.217,205.201L542.049,239.435" style="fill:none;stroke:white;stroke-width:46.96px;"/>
            </g>
            <path d="M471.564,281.193L542.049,239.435L542.049,301.977" style="fill:none;stroke:white;stroke-width:44.98px;"/>
        </g>
        <g transform="matrix(-0.5,-0.866025,0.866025,-0.5,224.251,825.188)">
            <g transform="matrix(0.965886,-0.0195187,-0.0195187,0.988832,23.1647,13.2541)">
                <path d="M482.217,205.201L542.049,239.435" style="fill:none;stroke:white;stroke-width:46.96px;"/>
            </g>
            <path d="M471.564,281.193L542.049,239.435L542.049,301.977" style="fill:none;stroke:white;stroke-width:44.98px;"/>
        </g>
        <g transform="matrix(-1,-3.88578e-16,3.88578e-16,-1,699.73,692.928)">
            <g transform="matrix(0.965886,-0.0195187,-0.0195187,0.988832,23.1647,13.2541)">
                <path d="M482.217,205.201L542.049,239.435" style="fill:none;stroke:white;stroke-width:46.96px;"/>
            </g>
            <path d="M471.564,281.193L542.049,239.435L542.049,301.977" style="fill:none;stroke:white;stroke-width:44.98px;"/>
        </g>
        <g transform="matrix(-0.5,0.866025,-0.866025,-0.5,822.929,215.021)">
            <g transform="matrix(0.965886,-0.0195187,-0.0195187,0.988832,23.1647,13.2541)">
                <path d="M482.217,205.201L542.049,239.435" style="fill:none;stroke:white;stroke-width:46.96px;"/>
            </g>
            <path d="M471.564,281.193L542.049,239.435L542.049,301.977" style="fill:none;stroke:white;stroke-width:44.98px;"/>
        </g>
        <g transform="matrix(0.5,0.866025,-0.866025,0.5,470.649,-130.626)">
            <g transform="matrix(0.965886,-0.0195187,-0.0195187,0.988832,23.1647,13.2541)">
                <path d="M482.217,205.201L542.049,239.435" style="fill:none;stroke:white;stroke-width:46.96px;"/>
            </g>
            <path d="M471.564,281.193L542.049,239.435L542.049,301.977" style="fill:none;stroke:white;stroke-width:44.98px;"/>
        </g>
    </g>
</svg>
