<?xml version="1.0" encoding="UTF-8"?>
<!-- Generator: CustomSymbols v2.6.2.41 by @serious_bret https://bretlester.com/app_content/CustomSymbols/ -->
<!-- Guides: Left/Right 0.134/0.134 Cap/Base 0.129/0.129 -->
<!-- Settings: RefScale 1.0 Min/Max Stroke Scales 0.5/2.21 -->
<!DOCTYPE svg
PUBLIC "-//W3C//DTD SVG 1.1//EN"
       "http://www.w3.org/Graphics/SVG/1.1/DTD/svg11.dtd">
<svg version="1.1" xmlns="http://www.w3.org/2000/svg" xmlns:xlink="http://www.w3.org/1999/xlink" width="3300" height="2200">
<![CDATA[<?xml version="1.0" encoding="UTF-8" standalone="no"?>
<!DOCTYPE svg PUBLIC "-//W3C//DTD SVG 1.1//EN" "http://www.w3.org/Graphics/SVG/1.1/DTD/svg11.dtd">
<svg width="100%" height="100%" viewBox="0 0 700 700" version="1.1" xmlns="http://www.w3.org/2000/svg" xmlns:xlink="http://www.w3.org/1999/xlink" xml:space="preserve" xmlns:serif="http://www.serif.com/" style="fill-rule:evenodd;clip-rule:evenodd;stroke-linecap:round;stroke-linejoin:round;stroke-miterlimit:1.5;">
    <g transform="matrix(1.06608,0,0,1.06608,-14.5131,-8.96905)">
        <path d="M527.664,240.068C527.664,205.922 499.942,178.2 465.796,178.2L218.041,178.2C183.895,178.2 156.172,205.922 156.172,240.068L156.172,470.309C156.172,504.455 183.895,532.177 218.041,532.177L465.796,532.177C499.942,532.177 527.664,504.455 527.664,470.309L527.664,240.068Z" style="fill:none;stroke:white;stroke-width:46.9px;"/>
        <path d="M439.776,141.259L439.776,205.564" style="fill:none;stroke:white;stroke-width:46.9px;"/>
        <g transform="matrix(1,0,0,1,-189.576,0)">
            <path d="M439.776,141.259L439.776,205.564" style="fill:none;stroke:white;stroke-width:46.9px;"/>
        </g>
        <g transform="matrix(0.951527,0,0,1,8.57021,4.71775)">
            <path d="M156.172,268.86L527.664,268.86" style="fill:none;stroke:white;stroke-width:48.05px;"/>
        </g>
    </g>
</svg>
]]>
 <g id="Notes">
  <rect height="2200" id="artboard" style="fill:white;opacity:1" width="3300" x="0" y="0"/>
  <line id="" style="fill:none;stroke:black;opacity:1;stroke-width:0.5;" x1="263" x2="3036" y1="292" y2="292"/>
  <text id="reftext1" style="stroke:none;fill:black;font-family:-apple-system,&quot;SF Pro Display&quot;,&quot;SF Pro Text&quot;,Helvetica,sans-serif;font-weight:bold;" transform="matrix(1 0 0 1 263 322)">Weight/Scale Variations</text>
  <text id="reftext2" style="stroke:none;fill:black;font-family:-apple-system,&quot;SF Pro Display&quot;,&quot;SF Pro Text&quot;,Helvetica,sans-serif;text-anchor:middle;" transform="matrix(1 0 0 1 559.711 322)">Ultralight</text>
  <text style="stroke:none;fill:black;font-family:-apple-system,&quot;SF Pro Display&quot;,&quot;SF Pro Text&quot;,Helvetica,sans-serif;text-anchor:middle;" transform="matrix(1 0 0 1 856.422 322)">Thin</text>
  <text style="stroke:none;fill:black;font-family:-apple-system,&quot;SF Pro Display&quot;,&quot;SF Pro Text&quot;,Helvetica,sans-serif;text-anchor:middle;" transform="matrix(1 0 0 1 1153.13 322)">Light</text>
  <text style="stroke:none;fill:black;font-family:-apple-system,&quot;SF Pro Display&quot;,&quot;SF Pro Text&quot;,Helvetica,sans-serif;text-anchor:middle;" transform="matrix(1 0 0 1 1449.84 322)">Regular</text>
  <text style="stroke:none;fill:black;font-family:-apple-system,&quot;SF Pro Display&quot;,&quot;SF Pro Text&quot;,Helvetica,sans-serif;text-anchor:middle;" transform="matrix(1 0 0 1 1746.56 322)">Medium</text>
  <text style="stroke:none;fill:black;font-family:-apple-system,&quot;SF Pro Display&quot;,&quot;SF Pro Text&quot;,Helvetica,sans-serif;text-anchor:middle;" transform="matrix(1 0 0 1 2043.27 322)">Semibold</text>
  <text style="stroke:none;fill:black;font-family:-apple-system,&quot;SF Pro Display&quot;,&quot;SF Pro Text&quot;,Helvetica,sans-serif;text-anchor:middle;" transform="matrix(1 0 0 1 2339.98 322)">Bold</text>
  <text style="stroke:none;fill:black;font-family:-apple-system,&quot;SF Pro Display&quot;,&quot;SF Pro Text&quot;,Helvetica,sans-serif;text-anchor:middle;" transform="matrix(1 0 0 1 2636.69 322)">Heavy</text>
  <text style="stroke:none;fill:black;font-family:-apple-system,&quot;SF Pro Display&quot;,&quot;SF Pro Text&quot;,Helvetica,sans-serif;text-anchor:middle;" transform="matrix(1 0 0 1 2933.4 322)">Black</text>
  <line id="" style="fill:none;stroke:black;opacity:1;stroke-width:0.5;" x1="263" x2="3036" y1="1903" y2="1903"/>
  <g id="" transform="matrix(1 0 0 1 263 1933)">
   <path d="M9.24805 0.830078C13.5547 0.830078 17.1387-2.74414 17.1387-7.05078C17.1387-11.3574 13.5449-14.9316 9.23828-14.9316C4.94141-14.9316 1.36719-11.3574 1.36719-7.05078C1.36719-2.74414 4.95117 0.830078 9.24805 0.830078ZM9.24805-0.654297C5.70312-0.654297 2.87109-3.49609 2.87109-7.05078C2.87109-10.6055 5.69336-13.4473 9.23828-13.4473C12.793-13.4473 15.6348-10.6055 15.6445-7.05078C15.6543-3.49609 12.8027-0.654297 9.24805-0.654297ZM6.39648-6.31836L8.50586-6.31836L8.50586-4.19922C8.50586-3.75977 8.79883-3.45703 9.22852-3.45703C9.67773-3.45703 9.9707-3.75977 9.9707-4.19922L9.9707-6.31836L12.0996-6.31836C12.5391-6.31836 12.8418-6.61133 12.8418-7.04102C12.8418-7.48047 12.5391-7.7832 12.0996-7.7832L9.9707-7.7832L9.9707-9.89258C9.9707-10.3418 9.67773-10.6445 9.22852-10.6445C8.79883-10.6445 8.50586-10.3418 8.50586-9.89258L8.50586-7.7832L6.39648-7.7832C5.94727-7.7832 5.64453-7.48047 5.64453-7.04102C5.64453-6.61133 5.94727-6.31836 6.39648-6.31836Z"/>
  </g>
  <g id="" transform="matrix(1 0 0 1 281.506 1933)">
   <path d="M11.709 2.91016C17.1582 2.91016 21.6699-1.61133 21.6699-7.05078C21.6699-12.5 17.1484-17.0117 11.6992-17.0117C6.25977-17.0117 1.74805-12.5 1.74805-7.05078C1.74805-1.61133 6.26953 2.91016 11.709 2.91016ZM11.709 1.25C7.09961 1.25 3.41797-2.44141 3.41797-7.05078C3.41797-11.6602 7.08984-15.3516 11.6992-15.3516C16.3086-15.3516 20-11.6602 20.0098-7.05078C20.0195-2.44141 16.3184 1.25 11.709 1.25ZM7.98828-6.23047L10.8789-6.23047L10.8789-3.32031C10.8789-2.83203 11.2109-2.5 11.6895-2.5C12.1777-2.5 12.5195-2.83203 12.5195-3.32031L12.5195-6.23047L15.4297-6.23047C15.918-6.23047 16.25-6.5625 16.25-7.04102C16.25-7.5293 15.918-7.87109 15.4297-7.87109L12.5195-7.87109L12.5195-10.7617C12.5195-11.2695 12.1777-11.6016 11.6895-11.6016C11.2109-11.6016 10.8789-11.2598 10.8789-10.7617L10.8789-7.87109L7.98828-7.87109C7.48047-7.87109 7.14844-7.5293 7.14844-7.04102C7.14844-6.5625 7.49023-6.23047 7.98828-6.23047Z"/>
  </g>
  <g id="" transform="matrix(1 0 0 1 304.924 1933)">
   <path d="M14.9707 5.66406C21.9336 5.66406 27.6953-0.0976562 27.6953-7.05078C27.6953-14.0137 21.9238-19.7754 14.9609-19.7754C8.00781-19.7754 2.25586-14.0137 2.25586-7.05078C2.25586-0.0976562 8.01758 5.66406 14.9707 5.66406ZM14.9707 3.84766C8.93555 3.84766 4.08203-1.01562 4.08203-7.05078C4.08203-13.0957 8.92578-17.9492 14.9609-17.9492C21.0059-17.9492 25.8594-13.0957 25.8691-7.05078C25.8789-1.01562 21.0156 3.84766 14.9707 3.84766ZM10.0586-6.14258L14.0625-6.14258L14.0625-2.12891C14.0625-1.5918 14.4336-1.2207 14.9512-1.2207C15.4883-1.2207 15.8594-1.5918 15.8594-2.12891L15.8594-6.14258L19.8828-6.14258C20.4102-6.14258 20.791-6.51367 20.791-7.03125C20.791-7.56836 20.4199-7.94922 19.8828-7.94922L15.8594-7.94922L15.8594-11.9531C15.8594-12.5098 15.4883-12.8809 14.9512-12.8809C14.4336-12.8809 14.0625-12.5 14.0625-11.9531L14.0625-7.94922L10.0586-7.94922C9.50195-7.94922 9.13086-7.56836 9.13086-7.03125C9.13086-6.51367 9.51172-6.14258 10.0586-6.14258Z"/>
  </g>
  <text style="stroke:none;fill:black;font-family:-apple-system,&quot;SF Pro Display&quot;,&quot;SF Pro Text&quot;,Helvetica,sans-serif;font-weight:bold;" transform="matrix(1 0 0 1 263 1953)">Design Variations</text>
  <text style="stroke:none;fill:black;font-family:-apple-system,&quot;SF Pro Display&quot;,&quot;SF Pro Text&quot;,Helvetica,sans-serif;" transform="matrix(1 0 0 1 263 1971)">Symbols are supported in up to nine weights and three scales.</text>
  <text style="stroke:none;fill:black;font-family:-apple-system,&quot;SF Pro Display&quot;,&quot;SF Pro Text&quot;,Helvetica,sans-serif;" transform="matrix(1 0 0 1 263 1989)">For optimal layout with text and other symbols, vertically align</text>
  <text style="stroke:none;fill:black;font-family:-apple-system,&quot;SF Pro Display&quot;,&quot;SF Pro Text&quot;,Helvetica,sans-serif;" transform="matrix(1 0 0 1 263 2007)">symbols with the adjacent text.</text>
  <line id="" style="fill:none;stroke:#00AEEF;stroke-width:0.5;opacity:1.0;" x1="776" x2="776" y1="1919" y2="1933"/>
  <g id="" transform="matrix(1 0 0 1 776 1933)">
   <path d="M3.31055 0.126953C3.82812 0.126953 4.08203-0.0683594 4.26758-0.605469L5.52734-4.0625L11.2891-4.0625L12.5488-0.605469C12.7344-0.0683594 12.9883 0.126953 13.4961 0.126953C14.0137 0.126953 14.3457-0.185547 14.3457-0.673828C14.3457-0.839844 14.3164-0.986328 14.2383-1.20117L9.6582-13.3887C9.43359-13.9941 9.0332-14.2871 8.4082-14.2871C7.80273-14.2871 7.39258-13.9941 7.17773-13.3984L2.59766-1.19141C2.51953-0.976562 2.49023-0.830078 2.49023-0.664062C2.49023-0.175781 2.80273 0.126953 3.31055 0.126953ZM6.00586-5.53711L8.37891-12.1094L8.42773-12.1094L10.8008-5.53711Z"/>
  </g>
  <line id="" style="fill:none;stroke:#00AEEF;stroke-width:0.5;opacity:1.0;" x1="792.836" x2="792.836" y1="1919" y2="1933"/>
  <text style="stroke:none;fill:black;font-family:-apple-system,&quot;SF Pro Display&quot;,&quot;SF Pro Text&quot;,Helvetica,sans-serif;font-weight:bold;" transform="matrix(1 0 0 1 776 1953)">Margins</text>
  <text style="stroke:none;fill:black;font-family:-apple-system,&quot;SF Pro Display&quot;,&quot;SF Pro Text&quot;,Helvetica,sans-serif;" transform="matrix(1 0 0 1 776 1971)">Leading and trailing margins on the left and right side of each symbol</text>
  <text style="stroke:none;fill:black;font-family:-apple-system,&quot;SF Pro Display&quot;,&quot;SF Pro Text&quot;,Helvetica,sans-serif;" transform="matrix(1 0 0 1 776 1989)">can be adjusted by modifying the x-location of the margin guidelines.</text>
  <text style="stroke:none;fill:black;font-family:-apple-system,&quot;SF Pro Display&quot;,&quot;SF Pro Text&quot;,Helvetica,sans-serif;" transform="matrix(1 0 0 1 776 2007)">Modifications are automatically applied proportionally to all</text>
  <text style="stroke:none;fill:black;font-family:-apple-system,&quot;SF Pro Display&quot;,&quot;SF Pro Text&quot;,Helvetica,sans-serif;" transform="matrix(1 0 0 1 776 2025)">scales and weights.</text>
  <g id="" transform="matrix(1 0 0 1 1289 1933)">
   <path d="M2.8418 1.86523L4.54102 3.57422C5.40039 4.44336 6.38672 4.38477 7.31445 3.35938L17.4902-7.85156C17.7539-7.76367 18.0273-7.7832 18.3398-7.8418L19.4043-8.03711L20.0684-7.36328L20.0293-6.80664C19.9902-6.30859 20.1172-5.92773 20.6055-5.44922L21.3672-4.70703C21.8457-4.22852 22.4609-4.19922 22.9297-4.66797L25.8398-7.58789C26.3086-8.05664 26.2891-8.65234 25.8105-9.13086L25.0391-9.89258C24.5605-10.3711 24.1895-10.5273 23.7109-10.4883L23.1348-10.4395L22.4902-11.0742L22.7344-12.1973C22.8613-12.7637 22.7051-13.2031 22.1191-13.7891L19.9219-15.9766C16.582-19.2969 12.1484-19.2188 9.25781-16.3281C8.83789-15.918 8.80859-15.3418 9.04297-14.9512C9.27734-14.5898 9.73633-14.3555 10.3809-14.5215C11.8457-14.8633 13.3691-14.9219 14.7949-13.9844L14.209-12.5293C14.0137-12.0508 13.9844-11.6504 14.1113-11.2891L3.04688-0.898438C2.06055 0.0195312 1.98242 0.996094 2.8418 1.86523ZM10.752-15.957C13.1836-17.7344 16.4746-17.4316 18.7012-15.2051L21.1328-12.793C21.3672-12.5586 21.4062-12.373 21.3379-12.0312L21.0156-10.5469L22.5195-9.0625L23.5059-9.12109C23.7598-9.13086 23.8379-9.11133 24.0332-8.91602L24.6094-8.33984L22.168-5.89844L21.5918-6.47461C21.3965-6.66992 21.3672-6.74805 21.377-7.01172L21.4453-7.98828L19.9512-9.47266L18.4277-9.21875C18.1055-9.15039 17.959-9.17969 17.7148-9.41406L15.7129-11.416C15.459-11.6504 15.4297-11.8164 15.5859-12.1875L16.4648-14.2773C14.9023-15.7324 12.8711-16.3574 10.8398-15.7617C10.6836-15.7227 10.625-15.8496 10.752-15.957ZM5.27344 2.30469L4.10156 1.14258C3.63281 0.683594 3.74023 0.341797 4.14062-0.0195312L14.9512-10.1953L16.416-8.71094L6.42578 2.27539C6.07422 2.67578 5.74219 2.77344 5.27344 2.30469Z"/>
  </g>
  <text style="stroke:none;fill:black;font-family:-apple-system,&quot;SF Pro Display&quot;,&quot;SF Pro Text&quot;,Helvetica,sans-serif;font-weight:bold;" transform="matrix(1 0 0 1 1289 1953)">Exporting</text>
  <text style="stroke:none;fill:black;font-family:-apple-system,&quot;SF Pro Display&quot;,&quot;SF Pro Text&quot;,Helvetica,sans-serif;" transform="matrix(1 0 0 1 1289 1971)">Symbols should be outlined when exporting to ensure the</text>
  <text style="stroke:none;fill:black;font-family:-apple-system,&quot;SF Pro Display&quot;,&quot;SF Pro Text&quot;,Helvetica,sans-serif;" transform="matrix(1 0 0 1 1289 1989)">design is preserved when submitting to Xcode.</text>
  <text id="template-version" style="stroke:none;fill:black;font-family:-apple-system,&quot;SF Pro Display&quot;,&quot;SF Pro Text&quot;,Helvetica,sans-serif;text-anchor:end;" transform="matrix(1 0 0 1 3036 1933)">Template v.2.0</text>
  <text style="stroke:none;fill:black;font-family:-apple-system,&quot;SF Pro Display&quot;,&quot;SF Pro Text&quot;,Helvetica,sans-serif;text-anchor:end;" transform="matrix(1 0 0 1 3036 1951)">Requires Xcode 12 or greater</text>
  <text style="stroke:none;fill:black;font-family:-apple-system,&quot;SF Pro Display&quot;,&quot;SF Pro Text&quot;,Helvetica,sans-serif;" transform="matrix(1 0 0 1 263 726)">Small</text>
  <text style="stroke:none;fill:black;font-family:-apple-system,&quot;SF Pro Display&quot;,&quot;SF Pro Text&quot;,Helvetica,sans-serif;" transform="matrix(1 0 0 1 263 1156)">Medium</text>
  <text style="stroke:none;fill:black;font-family:-apple-system,&quot;SF Pro Display&quot;,&quot;SF Pro Text&quot;,Helvetica,sans-serif;" transform="matrix(1 0 0 1 263 1586)">Large</text>
 </g>
 <g id="Guides">
  <g id="H-reference" style="fill:#27AAE1;stroke:none;" transform="matrix(1 0 0 1 339 696)">
   <path d="M0.976562 0L3.66211 0L12.9883-24.4629L45.752-24.4629L55.127 0L57.7637 0L30.6152-70.459L28.125-70.459ZM29.3457-67.1387L29.4434-67.1387L44.873-26.709L13.8672-26.709Z"/>
  </g>
  <line id="Baseline-S" style="fill:none;stroke:#27AAE1;opacity:1;stroke-width:0.5;" x1="263" x2="3036" y1="696" y2="696"/>
  <line id="Capline-S" style="fill:none;stroke:#27AAE1;opacity:1;stroke-width:0.5;" x1="263" x2="3036" y1="625.541" y2="625.541"/>
  <g id="H-reference" style="fill:#27AAE1;stroke:none;" transform="matrix(1 0 0 1 339 1126)">
   <path d="M0.976562 0L3.66211 0L12.9883-24.4629L45.752-24.4629L55.127 0L57.7637 0L30.6152-70.459L28.125-70.459ZM29.3457-67.1387L29.4434-67.1387L44.873-26.709L13.8672-26.709Z"/>
  </g>
  <line id="Baseline-M" style="fill:none;stroke:#27AAE1;opacity:1;stroke-width:0.5;" x1="263" x2="3036" y1="1126" y2="1126"/>
  <line id="Capline-M" style="fill:none;stroke:#27AAE1;opacity:1;stroke-width:0.5;" x1="263" x2="3036" y1="1055.54" y2="1055.54"/>
  <g id="H-reference" style="fill:#27AAE1;stroke:none;" transform="matrix(1 0 0 1 339 1556)">
   <path d="M0.976562 0L3.66211 0L12.9883-24.4629L45.752-24.4629L55.127 0L57.7637 0L30.6152-70.459L28.125-70.459ZM29.3457-67.1387L29.4434-67.1387L44.873-26.709L13.8672-26.709Z"/>
  </g>
  <line id="Baseline-L" style="fill:none;stroke:#27AAE1;opacity:1;stroke-width:0.5;" x1="263" x2="3036" y1="1556" y2="1556"/>
  <line id="Capline-L" style="fill:none;stroke:#27AAE1;opacity:1;stroke-width:0.5;" x1="263" x2="3036" y1="1485.54" y2="1485.54"/>
  <line id="left-margin" x1="1416.3748171116913" x2="1416.3748171116913" y1="1030.79" y2="1150.12" style="fill:none;stroke:#00AEEF;stroke-width:0.5;opacity:1.0;"/>
  <line id="right-margin" x1="1485.8851828883085" x2="1485.8851828883085" y1="1030.79" y2="1150.12" style="fill:none;stroke:#00AEEF;stroke-width:0.5;opacity:1.0;"/>
 </g>
 <g id="Symbols">
  <g id="Black-L" transform="matrix(1.0,0.0,0.0,1.0,2873.4311121230626,1459.5211316543127)">  <path xmlns:xlink="http://www.w3.org/1999/xlink" stroke-opacity="1" version="1.1" xmlns:serif="http://www.serif.com/" clip-rule="evenodd" stroke-width="46.900001525878906" xml:space="preserve" stroke-miterlimit="1.5" stroke-dasharray="none" fill="#000000" fill-opacity="1" stroke="none" stroke-linecap="round" fill-rule="nonzero" stroke-linejoin="round" d="M104.971,43.218C104.971,31.839,95.738,22.606,84.359,22.606L38.138,22.606C26.759,22.606,17.527,31.839,17.527,43.218L17.527,86.172C17.527,97.551,26.759,106.783,38.138,106.783L84.359,106.783C95.738,106.783,104.971,97.551,104.971,86.172L104.971,43.218ZM86.832,43.218L86.832,86.172C86.832,87.533,85.721,88.645,84.359,88.645L38.138,88.645C36.776,88.645,35.665,87.533,35.665,86.172L35.665,43.218C35.665,41.856,36.776,40.745,38.138,40.745L84.359,40.745C85.721,40.745,86.832,41.856,86.832,43.218Z"/>
  <path version="1.1" stroke-miterlimit="1.5" xmlns:serif="http://www.serif.com/" stroke-linejoin="round" xmlns:xlink="http://www.w3.org/1999/xlink" fill="#000000" stroke="none" stroke-linecap="round" clip-rule="evenodd" fill-rule="nonzero" stroke-dasharray="none" fill-opacity="1" xml:space="preserve" stroke-opacity="1" stroke-width="46.900001525878906" d="M70.436,24.784L70.436,36.781C70.436,41.789,74.496,45.85,79.505,45.85C84.514,45.85,88.574,41.789,88.574,36.781L88.574,24.784C88.574,19.775,84.514,15.715,79.505,15.715C74.496,15.715,70.436,19.775,70.436,24.784Z"/>
  <path stroke-width="46.900001525878906" version="1.1" stroke-miterlimit="1.5" stroke-opacity="1" stroke-linecap="round" stroke-linejoin="round" clip-rule="evenodd" fill-opacity="1" xmlns:serif="http://www.serif.com/" stroke-dasharray="none" fill="#000000" xml:space="preserve" stroke="none" xmlns:xlink="http://www.w3.org/1999/xlink" fill-rule="nonzero" d="M35.069,24.784L35.069,36.781C35.069,41.789,39.129,45.85,44.138,45.85C49.146,45.85,53.207,41.789,53.207,36.781L53.207,24.784C53.207,19.775,49.146,15.715,44.138,15.715C39.129,15.715,35.069,19.775,35.069,24.784Z"/>
  <path fill="#000000" clip-rule="evenodd" fill-opacity="1" stroke-miterlimit="1.5" version="1.1" stroke-linecap="round" stroke-dasharray="none" stroke-linejoin="round" stroke-opacity="1" xmlns:xlink="http://www.w3.org/1999/xlink" fill-rule="nonzero" xmlns:serif="http://www.serif.com/" xml:space="preserve" stroke-width="48.04999923706055" stroke="none" d="M26.782,58.761L92.729,58.761C97.86,58.761,102.02,54.601,102.02,49.469C102.02,44.338,97.86,40.178,92.729,40.178L26.782,40.178C21.651,40.178,17.491,44.338,17.491,49.469C17.491,54.601,21.651,58.761,26.782,58.761Z"/>
</g>
  <g id="Heavy-L" transform="matrix(1.0,0.0,0.0,1.0,2576.7211121230625,1459.5211316543127)">  <path stroke-dasharray="none" fill-rule="nonzero" fill-opacity="1" stroke-linejoin="round" xmlns:serif="http://www.serif.com/" xml:space="preserve" clip-rule="evenodd" stroke-linecap="round" stroke-width="46.900001525878906" version="1.1" xmlns:xlink="http://www.w3.org/1999/xlink" stroke-opacity="1" stroke-miterlimit="1.5" fill="#000000" stroke="none" d="M103.978,43.218C103.978,32.387,95.19,23.6,84.359,23.6L38.138,23.6C27.308,23.6,18.52,32.387,18.52,43.218L18.52,86.172C18.52,97.002,27.308,105.79,38.138,105.79L84.359,105.79C95.19,105.79,103.978,97.002,103.978,86.172L103.978,43.218ZM87.826,43.218L87.826,86.172C87.826,88.082,86.269,89.638,84.359,89.638L38.138,89.638C36.228,89.638,34.672,88.082,34.672,86.172L34.672,43.218C34.672,41.308,36.228,39.752,38.138,39.752L84.359,39.752C86.269,39.752,87.826,41.308,87.826,43.218Z"/>
  <path fill-opacity="1" fill-rule="nonzero" stroke-dasharray="none" stroke-opacity="1" stroke-width="46.900001525878906" fill="#000000" xmlns:xlink="http://www.w3.org/1999/xlink" clip-rule="evenodd" stroke-miterlimit="1.5" stroke-linejoin="round" xmlns:serif="http://www.serif.com/" stroke="none" version="1.1" xml:space="preserve" stroke-linecap="round" d="M71.429,24.784L71.429,36.781C71.429,41.241,75.045,44.857,79.505,44.857C83.965,44.857,87.581,41.241,87.581,36.781L87.581,24.784C87.581,20.324,83.965,16.708,79.505,16.708C75.045,16.708,71.429,20.324,71.429,24.784Z"/>
  <path version="1.1" stroke-dasharray="none" stroke="none" xmlns:xlink="http://www.w3.org/1999/xlink" stroke-opacity="1" fill="#000000" stroke-linejoin="round" stroke-linecap="round" clip-rule="evenodd" xml:space="preserve" stroke-miterlimit="1.5" xmlns:serif="http://www.serif.com/" fill-rule="nonzero" fill-opacity="1" stroke-width="46.900001525878906" d="M36.062,24.784L36.062,36.781C36.062,41.241,39.677,44.857,44.138,44.857C48.598,44.857,52.214,41.241,52.214,36.781L52.214,24.784C52.214,20.324,48.598,16.708,44.138,16.708C39.677,16.708,36.062,20.324,36.062,24.784Z"/>
  <path xmlns:serif="http://www.serif.com/" stroke-width="48.04999923706055" stroke-linecap="round" fill-rule="nonzero" fill-opacity="1" stroke-dasharray="none" fill="#000000" xml:space="preserve" stroke-linejoin="round" stroke="none" stroke-opacity="1" stroke-miterlimit="1.5" xmlns:xlink="http://www.w3.org/1999/xlink" version="1.1" clip-rule="evenodd" d="M26.782,57.743L92.729,57.743C97.298,57.743,101.003,54.039,101.003,49.469C101.003,44.9,97.298,41.195,92.729,41.195L26.782,41.195C22.213,41.195,18.508,44.9,18.508,49.469C18.508,54.039,22.213,57.743,26.782,57.743Z"/>
</g>
  <g id="Bold-L" transform="matrix(1.0,0.0,0.0,1.0,2280.0111121230625,1459.5211316543127)">  <path fill-rule="nonzero" stroke-dasharray="none" stroke-linecap="round" fill-opacity="1" clip-rule="evenodd" stroke-opacity="1" xml:space="preserve" xmlns:xlink="http://www.w3.org/1999/xlink" xmlns:serif="http://www.serif.com/" version="1.1" stroke-linejoin="round" stroke="none" stroke-width="46.900001525878906" stroke-miterlimit="1.5" fill="#000000" d="M102.985,43.218C102.985,32.936,94.642,24.593,84.359,24.593L38.138,24.593C27.856,24.593,19.513,32.936,19.513,43.218L19.513,86.172C19.513,96.454,27.856,104.797,38.138,104.797L84.359,104.797C94.642,104.797,102.985,96.454,102.985,86.172L102.985,43.218ZM88.819,43.218L88.819,86.172C88.819,88.63,86.818,90.631,84.359,90.631L38.138,90.631C35.68,90.631,33.679,88.63,33.679,86.172L33.679,43.218C33.679,40.759,35.68,38.758,38.138,38.758L84.359,38.758C86.818,38.758,88.819,40.759,88.819,43.218Z"/>
  <path stroke-linecap="round" xmlns:serif="http://www.serif.com/" xml:space="preserve" clip-rule="evenodd" fill-rule="nonzero" fill-opacity="1" stroke="none" stroke-miterlimit="1.5" stroke-linejoin="round" stroke-dasharray="none" stroke-opacity="1" version="1.1" stroke-width="46.900001525878906" fill="#000000" xmlns:xlink="http://www.w3.org/1999/xlink" d="M72.422,24.784L72.422,36.781C72.422,40.692,75.593,43.864,79.505,43.864C83.417,43.864,86.588,40.692,86.588,36.781L86.588,24.784C86.588,20.872,83.417,17.701,79.505,17.701C75.593,17.701,72.422,20.872,72.422,24.784Z"/>
  <path xmlns:serif="http://www.serif.com/" stroke-linejoin="round" stroke-miterlimit="1.5" fill="#000000" stroke-dasharray="none" xml:space="preserve" fill-rule="nonzero" xmlns:xlink="http://www.w3.org/1999/xlink" clip-rule="evenodd" stroke-linecap="round" fill-opacity="1" stroke="none" stroke-width="46.900001525878906" version="1.1" stroke-opacity="1" d="M37.055,24.784L37.055,36.781C37.055,40.692,40.226,43.864,44.138,43.864C48.05,43.864,51.221,40.692,51.221,36.781L51.221,24.784C51.221,20.872,48.05,17.701,44.138,17.701C40.226,17.701,37.055,20.872,37.055,24.784Z"/>
  <path stroke-opacity="1" stroke-miterlimit="1.5" version="1.1" stroke-dasharray="none" stroke-width="48.04999923706055" xmlns:xlink="http://www.w3.org/1999/xlink" stroke-linejoin="round" xml:space="preserve" stroke-linecap="round" clip-rule="evenodd" xmlns:serif="http://www.serif.com/" fill-rule="nonzero" fill="#000000" stroke="none" fill-opacity="1" d="M26.782,56.726L92.729,56.726C96.736,56.726,99.985,53.477,99.985,49.469C99.985,45.462,96.736,42.213,92.729,42.213L26.782,42.213C22.775,42.213,19.526,45.462,19.526,49.469C19.526,53.477,22.775,56.726,26.782,56.726Z"/>
</g>
  <g id="Semibold-L" transform="matrix(1.0,0.0,0.0,1.0,1983.3011121230627,1459.5211316543127)">  <path fill-rule="nonzero" stroke-dasharray="none" fill-opacity="1" stroke="none" stroke-linecap="round" stroke-linejoin="round" version="1.1" clip-rule="evenodd" xml:space="preserve" stroke-opacity="1" xmlns:xlink="http://www.w3.org/1999/xlink" xmlns:serif="http://www.serif.com/" fill="#000000" stroke-width="46.900001525878906" stroke-miterlimit="1.5" d="M101.991,43.218C101.991,33.484,94.093,25.586,84.359,25.586L38.138,25.586C28.404,25.586,20.506,33.484,20.506,43.218L20.506,86.172C20.506,95.905,28.404,103.804,38.138,103.804L84.359,103.804C94.093,103.804,101.991,95.905,101.991,86.172L101.991,43.218ZM89.812,43.218L89.812,86.172C89.812,89.179,87.366,91.624,84.359,91.624L38.138,91.624C35.131,91.624,32.686,89.178,32.686,86.172L32.686,43.218C32.686,40.211,35.131,37.765,38.138,37.765L84.359,37.765C87.366,37.765,89.812,40.211,89.812,43.218Z"/>
  <path clip-rule="evenodd" xmlns:serif="http://www.serif.com/" stroke-opacity="1" stroke-miterlimit="1.5" stroke-width="46.900001525878906" stroke-linejoin="round" fill="#000000" stroke="none" version="1.1" xml:space="preserve" fill-rule="nonzero" stroke-linecap="round" stroke-dasharray="none" fill-opacity="1" xmlns:xlink="http://www.w3.org/1999/xlink" d="M73.415,24.784L73.415,36.781C73.415,40.144,76.142,42.87,79.505,42.87C82.868,42.87,85.595,40.144,85.595,36.781L85.595,24.784C85.595,21.42,82.868,18.694,79.505,18.694C76.142,18.694,73.415,21.42,73.415,24.784Z"/>
  <path stroke-linecap="round" stroke-width="46.900001525878906" fill-opacity="1" xml:space="preserve" stroke-opacity="1" fill="#000000" fill-rule="nonzero" stroke="none" version="1.1" stroke-linejoin="round" stroke-miterlimit="1.5" clip-rule="evenodd" xmlns:serif="http://www.serif.com/" stroke-dasharray="none" xmlns:xlink="http://www.w3.org/1999/xlink" d="M38.048,24.784L38.048,36.781C38.048,40.144,40.774,42.87,44.138,42.87C47.501,42.87,50.228,40.144,50.228,36.781L50.228,24.784C50.228,21.42,47.501,18.694,44.138,18.694C40.774,18.694,38.048,21.42,38.048,24.784Z"/>
  <path clip-rule="evenodd" stroke="none" xmlns:xlink="http://www.w3.org/1999/xlink" stroke-miterlimit="1.5" fill="#000000" stroke-opacity="1" xml:space="preserve" stroke-linecap="round" stroke-width="48.04999923706055" fill-opacity="1" stroke-linejoin="round" stroke-dasharray="none" xmlns:serif="http://www.serif.com/" fill-rule="nonzero" version="1.1" d="M26.782,55.708L92.729,55.708C96.174,55.708,98.968,52.915,98.968,49.469C98.968,46.023,96.174,43.23,92.729,43.23L26.782,43.23C23.337,43.23,20.543,46.023,20.543,49.469C20.543,52.915,23.337,55.708,26.782,55.708Z"/>
</g>
  <g id="Medium-L" transform="matrix(1.0,0.0,0.0,1.0,1686.5911121230627,1459.5211316543127)">  <path stroke-linejoin="round" xmlns:serif="http://www.serif.com/" stroke-width="46.900001525878906" fill-rule="nonzero" stroke="none" stroke-dasharray="none" version="1.1" stroke-miterlimit="1.5" stroke-linecap="round" xmlns:xlink="http://www.w3.org/1999/xlink" fill-opacity="1" clip-rule="evenodd" fill="#000000" xml:space="preserve" stroke-opacity="1" d="M100.998,43.218C100.998,34.033,93.545,26.579,84.359,26.579L38.138,26.579C28.953,26.579,21.499,34.033,21.499,43.218L21.499,86.172C21.499,95.357,28.953,102.81,38.138,102.81L84.359,102.81C93.545,102.81,100.998,95.357,100.998,86.172L100.998,43.218ZM90.805,43.218L90.805,86.172C90.805,89.727,87.915,92.617,84.359,92.617L38.138,92.617C34.583,92.617,31.693,89.727,31.693,86.172L31.693,43.218C31.693,39.662,34.583,36.772,38.138,36.772L84.359,36.772C87.915,36.772,90.805,39.662,90.805,43.218Z"/>
  <path stroke="none" xml:space="preserve" stroke-width="46.900001525878906" fill-rule="nonzero" fill-opacity="1" xmlns:serif="http://www.serif.com/" xmlns:xlink="http://www.w3.org/1999/xlink" stroke-miterlimit="1.5" stroke-opacity="1" stroke-linejoin="round" fill="#000000" clip-rule="evenodd" version="1.1" stroke-linecap="round" stroke-dasharray="none" d="M74.408,24.784L74.408,36.781C74.408,39.595,76.69,41.877,79.505,41.877C82.32,41.877,84.602,39.595,84.602,36.781L84.602,24.784C84.602,21.969,82.32,19.687,79.505,19.687C76.69,19.687,74.408,21.969,74.408,24.784Z"/>
  <path version="1.1" stroke-linecap="round" xml:space="preserve" fill-rule="nonzero" fill-opacity="1" stroke-dasharray="none" stroke="none" xmlns:serif="http://www.serif.com/" xmlns:xlink="http://www.w3.org/1999/xlink" clip-rule="evenodd" stroke-opacity="1" stroke-miterlimit="1.5" fill="#000000" stroke-width="46.900001525878906" stroke-linejoin="round" d="M39.041,24.784L39.041,36.781C39.041,39.595,41.323,41.877,44.138,41.877C46.953,41.877,49.234,39.595,49.234,36.781L49.234,24.784C49.234,21.969,46.953,19.687,44.138,19.687C41.323,19.687,39.041,21.969,39.041,24.784Z"/>
  <path clip-rule="evenodd" stroke-opacity="1" stroke="none" fill="#000000" stroke-dasharray="none" xmlns:xlink="http://www.w3.org/1999/xlink" stroke-linecap="round" fill-opacity="1" stroke-linejoin="round" xml:space="preserve" fill-rule="nonzero" stroke-width="48.04999923706055" stroke-miterlimit="1.5" version="1.1" xmlns:serif="http://www.serif.com/" d="M26.782,54.691L92.729,54.691C95.613,54.691,97.95,52.353,97.95,49.469C97.95,46.585,95.613,44.248,92.729,44.248L26.782,44.248C23.898,44.248,21.561,46.585,21.561,49.469C21.561,52.353,23.898,54.691,26.782,54.691Z"/>
</g>
  <g id="Regular-L" transform="matrix(1.0,0.0,0.0,1.0,1389.8811121230626,1459.5211316543127)">  <path xmlns:serif="http://www.serif.com/" clip-rule="evenodd" stroke-width="46.900001525878906" stroke-opacity="1" stroke-linejoin="round" stroke-linecap="round" stroke-miterlimit="1.5" stroke-dasharray="none" fill-opacity="1" version="1.1" xml:space="preserve" stroke="none" fill-rule="nonzero" xmlns:xlink="http://www.w3.org/1999/xlink" fill="#000000" d="M100.005,43.218C100.005,34.581,92.996,27.572,84.359,27.572L38.138,27.572C29.501,27.572,22.492,34.581,22.492,43.218L22.492,86.172C22.492,94.808,29.501,101.817,38.138,101.817L84.359,101.817C92.996,101.817,100.005,94.808,100.005,86.172L100.005,43.218ZM91.798,43.218L91.798,86.172C91.798,90.275,88.463,93.61,84.359,93.61L38.138,93.61C34.034,93.61,30.699,90.275,30.699,86.172L30.699,43.218C30.699,39.114,34.034,35.779,38.138,35.779L84.359,35.779C88.463,35.779,91.798,39.114,91.798,43.218Z"/>
  <path stroke-linejoin="round" xmlns:xlink="http://www.w3.org/1999/xlink" stroke-miterlimit="1.5" clip-rule="evenodd" stroke="none" xmlns:serif="http://www.serif.com/" version="1.1" fill-opacity="1" fill="#000000" stroke-width="46.900001525878906" stroke-linecap="round" fill-rule="nonzero" xml:space="preserve" stroke-opacity="1" stroke-dasharray="none" d="M75.401,24.784L75.401,36.781C75.401,39.047,77.239,40.884,79.505,40.884C81.772,40.884,83.609,39.047,83.609,36.781L83.609,24.784C83.609,22.517,81.772,20.68,79.505,20.68C77.239,20.68,75.401,22.517,75.401,24.784Z"/>
  <path xmlns:serif="http://www.serif.com/" stroke-linecap="round" fill-opacity="1" stroke-width="46.900001525878906" xml:space="preserve" stroke-miterlimit="1.5" stroke-linejoin="round" fill="#000000" stroke="none" fill-rule="nonzero" version="1.1" stroke-opacity="1" clip-rule="evenodd" xmlns:xlink="http://www.w3.org/1999/xlink" stroke-dasharray="none" d="M40.034,24.784L40.034,36.781C40.034,39.047,41.871,40.884,44.138,40.884C46.404,40.884,48.241,39.047,48.241,36.781L48.241,24.784C48.241,22.517,46.404,20.68,44.138,20.68C41.871,20.68,40.034,22.517,40.034,24.784Z"/>
  <path fill-rule="nonzero" stroke-dasharray="none" stroke-miterlimit="1.5" stroke-width="48.04999923706055" version="1.1" stroke-linejoin="round" fill-opacity="1" xml:space="preserve" clip-rule="evenodd" fill="#000000" xmlns:xlink="http://www.w3.org/1999/xlink" stroke="none" stroke-opacity="1" stroke-linecap="round" xmlns:serif="http://www.serif.com/" d="M26.782,53.674L92.729,53.674C95.051,53.674,96.933,51.791,96.933,49.469C96.933,47.147,95.051,45.265,92.729,45.265L26.782,45.265C24.46,45.265,22.578,47.147,22.578,49.469C22.578,51.791,24.46,53.674,26.782,53.674Z"/>
</g>
  <g id="Light-L" transform="matrix(1.0,0.0,0.0,1.0,1093.1711121230628,1459.5211316543127)">  <path stroke-miterlimit="1.5" stroke-width="46.900001525878906" clip-rule="evenodd" stroke-dasharray="none" stroke-opacity="1" fill-opacity="1" stroke-linejoin="round" fill-rule="nonzero" version="1.1" stroke="none" stroke-linecap="round" fill="#000000" xmlns:xlink="http://www.w3.org/1999/xlink" xml:space="preserve" xmlns:serif="http://www.serif.com/" d="M99.321,43.218C99.321,34.959,92.618,28.256,84.359,28.256L38.138,28.256C29.879,28.256,23.176,34.959,23.176,43.218L23.176,86.172C23.176,94.431,29.879,101.133,38.138,101.133L84.359,101.133C92.618,101.133,99.321,94.431,99.321,86.172L99.321,43.218ZM92.482,43.218L92.482,86.172C92.482,90.653,88.841,94.294,84.359,94.294L38.138,94.294C33.656,94.294,30.016,90.653,30.016,86.172L30.016,43.218C30.016,38.736,33.656,35.095,38.138,35.095L84.359,35.095C88.841,35.095,92.482,38.736,92.482,43.218Z"/>
  <path stroke-width="46.900001525878906" fill-rule="nonzero" xml:space="preserve" stroke-linecap="round" stroke-miterlimit="1.5" stroke-dasharray="none" fill="#000000" stroke="none" fill-opacity="1" clip-rule="evenodd" stroke-opacity="1" version="1.1" xmlns:xlink="http://www.w3.org/1999/xlink" xmlns:serif="http://www.serif.com/" stroke-linejoin="round" d="M76.085,24.784L76.085,36.781C76.085,38.669,77.616,40.2,79.505,40.2C81.394,40.2,82.925,38.669,82.925,36.781L82.925,24.784C82.925,22.895,81.394,21.364,79.505,21.364C77.616,21.364,76.085,22.895,76.085,24.784Z"/>
  <path stroke="none" xmlns:serif="http://www.serif.com/" fill-rule="nonzero" stroke-dasharray="none" xml:space="preserve" stroke-linejoin="round" version="1.1" clip-rule="evenodd" stroke-linecap="round" stroke-miterlimit="1.5" stroke-opacity="1" xmlns:xlink="http://www.w3.org/1999/xlink" stroke-width="46.900001525878906" fill-opacity="1" fill="#000000" d="M40.718,24.784L40.718,36.781C40.718,38.669,42.249,40.2,44.138,40.2C46.026,40.2,47.557,38.669,47.557,36.781L47.557,24.784C47.557,22.895,46.026,21.364,44.138,21.364C42.249,21.364,40.718,22.895,40.718,24.784Z"/>
  <path version="1.1" fill="#000000" clip-rule="evenodd" stroke-opacity="1" stroke-linecap="round" fill-opacity="1" stroke-width="48.04999923706055" stroke-linejoin="round" xmlns:serif="http://www.serif.com/" stroke-dasharray="none" stroke-miterlimit="1.5" stroke="none" fill-rule="nonzero" xmlns:xlink="http://www.w3.org/1999/xlink" xml:space="preserve" d="M26.782,52.973L92.729,52.973C94.664,52.973,96.232,51.404,96.232,49.469C96.232,47.534,94.664,45.966,92.729,45.966L26.782,45.966C24.847,45.966,23.279,47.534,23.279,49.469C23.279,51.404,24.847,52.973,26.782,52.973Z"/>
</g>
  <g id="Thin-L" transform="matrix(1.0,0.0,0.0,1.0,796.4611121230627,1459.5211316543127)">  <path stroke-miterlimit="1.5" version="1.1" xmlns:xlink="http://www.w3.org/1999/xlink" fill-opacity="1" stroke-linejoin="round" xmlns:serif="http://www.serif.com/" fill-rule="nonzero" clip-rule="evenodd" xml:space="preserve" fill="#000000" stroke-linecap="round" stroke="none" stroke-dasharray="none" stroke-opacity="1" stroke-width="46.900001525878906" d="M98.637,43.218C98.637,35.336,92.241,28.94,84.359,28.94L38.138,28.94C30.257,28.94,23.86,35.336,23.86,43.218L23.86,86.172C23.86,94.053,30.257,100.449,38.138,100.449L84.359,100.449C92.241,100.449,98.637,94.053,98.637,86.172L98.637,43.218ZM93.166,43.218L93.166,86.172C93.166,91.031,89.219,94.978,84.359,94.978L38.138,94.978C33.279,94.978,29.332,91.031,29.332,86.172L29.332,43.218C29.332,38.358,33.279,34.411,38.138,34.411L84.359,34.411C89.219,34.411,93.166,38.358,93.166,43.218Z"/>
  <path xmlns:serif="http://www.serif.com/" stroke-width="46.900001525878906" xmlns:xlink="http://www.w3.org/1999/xlink" fill="#000000" stroke-opacity="1" fill-rule="nonzero" clip-rule="evenodd" stroke-linejoin="round" version="1.1" fill-opacity="1" stroke="none" stroke-dasharray="none" xml:space="preserve" stroke-linecap="round" stroke-miterlimit="1.5" d="M76.769,24.784L76.769,36.781C76.769,38.292,77.994,39.516,79.505,39.516C81.016,39.516,82.241,38.292,82.241,36.781L82.241,24.784C82.241,23.273,81.016,22.048,79.505,22.048C77.994,22.048,76.769,23.273,76.769,24.784Z"/>
  <path xml:space="preserve" fill-opacity="1" stroke-linecap="round" xmlns:serif="http://www.serif.com/" stroke-miterlimit="1.5" version="1.1" fill-rule="nonzero" stroke-dasharray="none" xmlns:xlink="http://www.w3.org/1999/xlink" clip-rule="evenodd" stroke-linejoin="round" stroke="none" fill="#000000" stroke-width="46.900001525878906" stroke-opacity="1" d="M41.402,24.784L41.402,36.781C41.402,38.292,42.627,39.516,44.138,39.516C45.649,39.516,46.874,38.292,46.874,36.781L46.874,24.784C46.874,23.273,45.649,22.048,44.138,22.048C42.627,22.048,41.402,23.273,41.402,24.784Z"/>
  <path stroke-dasharray="none" xmlns:serif="http://www.serif.com/" stroke-linejoin="round" stroke-opacity="1" stroke-miterlimit="1.5" stroke-width="48.04999923706055" version="1.1" stroke="none" fill-opacity="1" xml:space="preserve" clip-rule="evenodd" fill-rule="nonzero" stroke-linecap="round" fill="#000000" xmlns:xlink="http://www.w3.org/1999/xlink" d="M26.782,52.272L92.729,52.272C94.277,52.272,95.532,51.017,95.532,49.469C95.532,47.921,94.277,46.666,92.729,46.666L26.782,46.666C25.234,46.666,23.98,47.921,23.98,49.469C23.98,51.017,25.234,52.272,26.782,52.272Z"/>
</g>
  <g id="Ultralight-L" transform="matrix(1.0,0.0,0.0,1.0,499.7511121230627,1459.5211316543127)">  <path stroke="none" stroke-linejoin="round" stroke-dasharray="none" version="1.1" xmlns:xlink="http://www.w3.org/1999/xlink" xmlns:serif="http://www.serif.com/" stroke-linecap="round" fill-rule="nonzero" stroke-miterlimit="1.5" fill="#000000" stroke-width="46.900001525878906" stroke-opacity="1" xml:space="preserve" clip-rule="evenodd" fill-opacity="1" d="M97.953,43.218C97.953,35.714,91.863,29.624,84.359,29.624L38.138,29.624C30.635,29.624,24.544,35.714,24.544,43.218L24.544,86.172C24.544,93.675,30.635,99.766,38.138,99.766L84.359,99.766C91.863,99.766,97.953,93.675,97.953,86.172L97.953,43.218ZM93.85,43.218L93.85,86.172C93.85,91.409,89.597,95.662,84.359,95.662L38.138,95.662C32.901,95.662,28.648,91.409,28.648,86.172L28.648,43.218C28.648,37.981,32.901,33.727,38.138,33.727L84.359,33.727C89.597,33.727,93.85,37.981,93.85,43.218Z"/>
  <path fill-rule="nonzero" version="1.1" stroke-linecap="round" xmlns:serif="http://www.serif.com/" stroke-width="46.900001525878906" clip-rule="evenodd" fill-opacity="1" stroke="none" xml:space="preserve" stroke-dasharray="none" stroke-opacity="1" fill="#000000" stroke-linejoin="round" stroke-miterlimit="1.5" xmlns:xlink="http://www.w3.org/1999/xlink" d="M77.453,24.784L77.453,36.781C77.453,37.914,78.372,38.832,79.505,38.832C80.638,38.832,81.557,37.914,81.557,36.781L81.557,24.784C81.557,23.651,80.638,22.732,79.505,22.732C78.372,22.732,77.453,23.651,77.453,24.784Z"/>
  <path stroke-dasharray="none" stroke-linecap="round" stroke-opacity="1" xmlns:xlink="http://www.w3.org/1999/xlink" stroke="none" fill-rule="nonzero" xmlns:serif="http://www.serif.com/" fill="#000000" clip-rule="evenodd" xml:space="preserve" stroke-miterlimit="1.5" version="1.1" stroke-linejoin="round" stroke-width="46.900001525878906" fill-opacity="1" d="M42.086,24.784L42.086,36.781C42.086,37.914,43.005,38.832,44.138,38.832C45.271,38.832,46.19,37.914,46.19,36.781L46.19,24.784C46.19,23.651,45.271,22.732,44.138,22.732C43.005,22.732,42.086,23.651,42.086,24.784Z"/>
  <path xml:space="preserve" xmlns:serif="http://www.serif.com/" xmlns:xlink="http://www.w3.org/1999/xlink" fill-opacity="1" clip-rule="evenodd" stroke-opacity="1" fill-rule="nonzero" fill="#000000" stroke-linejoin="round" stroke-dasharray="none" stroke-linecap="round" stroke="none" stroke-width="48.04999923706055" version="1.1" stroke-miterlimit="1.5" d="M26.782,51.571L92.729,51.571C93.89,51.571,94.831,50.63,94.831,49.469C94.831,48.308,93.89,47.367,92.729,47.367L26.782,47.367C25.621,47.367,24.68,48.308,24.68,49.469C24.68,50.63,25.621,51.571,26.782,51.571Z"/>
</g>
  <g id="Black-M" transform="matrix(1.0,0.0,0.0,1.0,2887.2002419558626,1043.2902614871125)">  <path xmlns:xlink="http://www.w3.org/1999/xlink" stroke-opacity="1" version="1.1" xmlns:serif="http://www.serif.com/" clip-rule="evenodd" stroke-width="46.900001525878906" xml:space="preserve" stroke-miterlimit="1.5" stroke-dasharray="none" fill="#000000" fill-opacity="1" stroke="none" stroke-linecap="round" fill-rule="nonzero" stroke-linejoin="round" d="M81.373,33.502C81.373,24.681,74.216,17.524,65.395,17.524L29.564,17.524C20.743,17.524,13.587,24.681,13.587,33.502L13.587,66.8C13.587,75.621,20.743,82.777,29.564,82.777L65.395,82.777C74.216,82.777,81.373,75.621,81.373,66.8L81.373,33.502ZM67.312,33.502L67.312,66.8C67.312,67.855,66.45,68.717,65.395,68.717L29.564,68.717C28.509,68.717,27.647,67.855,27.647,66.8L27.647,33.502C27.647,32.447,28.509,31.585,29.564,31.585L65.395,31.585C66.45,31.585,67.312,32.447,67.312,33.502Z"/>
  <path version="1.1" stroke-miterlimit="1.5" xmlns:serif="http://www.serif.com/" stroke-linejoin="round" xmlns:xlink="http://www.w3.org/1999/xlink" fill="#000000" stroke="none" stroke-linecap="round" clip-rule="evenodd" fill-rule="nonzero" stroke-dasharray="none" fill-opacity="1" xml:space="preserve" stroke-opacity="1" stroke-width="46.900001525878906" d="M54.602,19.212L54.602,28.512C54.602,32.395,57.749,35.542,61.632,35.542C65.515,35.542,68.662,32.395,68.662,28.512L68.662,19.212C68.662,15.33,65.515,12.182,61.632,12.182C57.749,12.182,54.602,15.33,54.602,19.212Z"/>
  <path stroke-width="46.900001525878906" version="1.1" stroke-miterlimit="1.5" stroke-opacity="1" stroke-linecap="round" stroke-linejoin="round" clip-rule="evenodd" fill-opacity="1" xmlns:serif="http://www.serif.com/" stroke-dasharray="none" fill="#000000" xml:space="preserve" stroke="none" xmlns:xlink="http://www.w3.org/1999/xlink" fill-rule="nonzero" d="M27.185,19.212L27.185,28.512C27.185,32.395,30.333,35.542,34.215,35.542C38.098,35.542,41.246,32.395,41.246,28.512L41.246,19.212C41.246,15.33,38.098,12.182,34.215,12.182C30.333,12.182,27.185,15.33,27.185,19.212Z"/>
  <path fill="#000000" clip-rule="evenodd" fill-opacity="1" stroke-miterlimit="1.5" version="1.1" stroke-linecap="round" stroke-dasharray="none" stroke-linejoin="round" stroke-opacity="1" xmlns:xlink="http://www.w3.org/1999/xlink" fill-rule="nonzero" xmlns:serif="http://www.serif.com/" xml:space="preserve" stroke-width="48.04999923706055" stroke="none" d="M20.762,45.551L71.883,45.551C75.861,45.551,79.085,42.326,79.085,38.348C79.085,34.37,75.861,31.146,71.883,31.146L20.762,31.146C16.784,31.146,13.559,34.37,13.559,38.348C13.559,42.326,16.784,45.551,20.762,45.551Z"/>
</g>
  <g id="Heavy-M" transform="matrix(1.0,0.0,0.0,1.0,2590.4902419558625,1043.2902614871125)">  <path stroke-dasharray="none" fill-rule="nonzero" fill-opacity="1" stroke-linejoin="round" xmlns:serif="http://www.serif.com/" xml:space="preserve" clip-rule="evenodd" stroke-linecap="round" stroke-width="46.900001525878906" version="1.1" xmlns:xlink="http://www.w3.org/1999/xlink" stroke-opacity="1" stroke-miterlimit="1.5" fill="#000000" stroke="none" d="M80.603,33.502C80.603,25.106,73.791,18.294,65.395,18.294L29.564,18.294C21.169,18.294,14.356,25.106,14.356,33.502L14.356,66.8C14.356,75.195,21.169,82.008,29.564,82.008L65.395,82.008C73.791,82.008,80.603,75.195,80.603,66.8L80.603,33.502ZM68.082,33.502L68.082,66.8C68.082,68.28,66.876,69.487,65.395,69.487L29.564,69.487C28.084,69.487,26.877,68.28,26.877,66.8L26.877,33.502C26.877,32.021,28.084,30.815,29.564,30.815L65.395,30.815C66.876,30.815,68.082,32.021,68.082,33.502Z"/>
  <path fill-opacity="1" fill-rule="nonzero" stroke-dasharray="none" stroke-opacity="1" stroke-width="46.900001525878906" fill="#000000" xmlns:xlink="http://www.w3.org/1999/xlink" clip-rule="evenodd" stroke-miterlimit="1.5" stroke-linejoin="round" xmlns:serif="http://www.serif.com/" stroke="none" version="1.1" xml:space="preserve" stroke-linecap="round" d="M55.371,19.212L55.371,28.512C55.371,31.97,58.174,34.773,61.632,34.773C65.089,34.773,67.892,31.97,67.892,28.512L67.892,19.212C67.892,15.755,65.089,12.952,61.632,12.952C58.174,12.952,55.371,15.755,55.371,19.212Z"/>
  <path version="1.1" stroke-dasharray="none" stroke="none" xmlns:xlink="http://www.w3.org/1999/xlink" stroke-opacity="1" fill="#000000" stroke-linejoin="round" stroke-linecap="round" clip-rule="evenodd" xml:space="preserve" stroke-miterlimit="1.5" xmlns:serif="http://www.serif.com/" fill-rule="nonzero" fill-opacity="1" stroke-width="46.900001525878906" d="M27.955,19.212L27.955,28.512C27.955,31.97,30.758,34.773,34.215,34.773C37.673,34.773,40.476,31.97,40.476,28.512L40.476,19.212C40.476,15.755,37.673,12.952,34.215,12.952C30.758,12.952,27.955,15.755,27.955,19.212Z"/>
  <path xmlns:serif="http://www.serif.com/" stroke-width="48.04999923706055" stroke-linecap="round" fill-rule="nonzero" fill-opacity="1" stroke-dasharray="none" fill="#000000" xml:space="preserve" stroke-linejoin="round" stroke="none" stroke-opacity="1" stroke-miterlimit="1.5" xmlns:xlink="http://www.w3.org/1999/xlink" version="1.1" clip-rule="evenodd" d="M20.762,44.762L71.883,44.762C75.425,44.762,78.297,41.891,78.297,38.348C78.297,34.806,75.425,31.934,71.883,31.934L20.762,31.934C17.219,31.934,14.348,34.806,14.348,38.348C14.348,41.891,17.219,44.762,20.762,44.762Z"/>
</g>
  <g id="Bold-M" transform="matrix(1.0,0.0,0.0,1.0,2293.7802419558625,1043.2902614871125)">  <path fill-rule="nonzero" stroke-dasharray="none" stroke-linecap="round" fill-opacity="1" clip-rule="evenodd" stroke-opacity="1" xml:space="preserve" xmlns:xlink="http://www.w3.org/1999/xlink" xmlns:serif="http://www.serif.com/" version="1.1" stroke-linejoin="round" stroke="none" stroke-width="46.900001525878906" stroke-miterlimit="1.5" fill="#000000" d="M79.833,33.502C79.833,25.531,73.366,19.064,65.395,19.064L29.564,19.064C21.594,19.064,15.126,25.531,15.126,33.502L15.126,66.8C15.126,74.77,21.594,81.238,29.564,81.238L65.395,81.238C73.366,81.238,79.833,74.77,79.833,66.8L79.833,33.502ZM68.852,33.502L68.852,66.8C68.852,68.705,67.301,70.256,65.395,70.256L29.564,70.256C27.659,70.256,26.108,68.705,26.108,66.8L26.108,33.502C26.108,31.596,27.659,30.045,29.564,30.045L65.395,30.045C67.301,30.045,68.852,31.596,68.852,33.502Z"/>
  <path stroke-linecap="round" xmlns:serif="http://www.serif.com/" xml:space="preserve" clip-rule="evenodd" fill-rule="nonzero" fill-opacity="1" stroke="none" stroke-miterlimit="1.5" stroke-linejoin="round" stroke-dasharray="none" stroke-opacity="1" version="1.1" stroke-width="46.900001525878906" fill="#000000" xmlns:xlink="http://www.w3.org/1999/xlink" d="M56.141,19.212L56.141,28.512C56.141,31.544,58.599,34.003,61.632,34.003C64.664,34.003,67.123,31.544,67.123,28.512L67.123,19.212C67.123,16.18,64.664,13.722,61.632,13.722C58.599,13.722,56.141,16.18,56.141,19.212Z"/>
  <path xmlns:serif="http://www.serif.com/" stroke-linejoin="round" stroke-miterlimit="1.5" fill="#000000" stroke-dasharray="none" xml:space="preserve" fill-rule="nonzero" xmlns:xlink="http://www.w3.org/1999/xlink" clip-rule="evenodd" stroke-linecap="round" fill-opacity="1" stroke="none" stroke-width="46.900001525878906" version="1.1" stroke-opacity="1" d="M28.725,19.212L28.725,28.512C28.725,31.544,31.183,34.003,34.215,34.003C37.248,34.003,39.706,31.544,39.706,28.512L39.706,19.212C39.706,16.18,37.248,13.722,34.215,13.722C31.183,13.722,28.725,16.18,28.725,19.212Z"/>
  <path stroke-opacity="1" stroke-miterlimit="1.5" version="1.1" stroke-dasharray="none" stroke-width="48.04999923706055" xmlns:xlink="http://www.w3.org/1999/xlink" stroke-linejoin="round" xml:space="preserve" stroke-linecap="round" clip-rule="evenodd" xmlns:serif="http://www.serif.com/" fill-rule="nonzero" fill="#000000" stroke="none" fill-opacity="1" d="M20.762,43.974L71.883,43.974C74.989,43.974,77.508,41.455,77.508,38.348C77.508,35.242,74.989,32.723,71.883,32.723L20.762,32.723C17.655,32.723,15.136,35.242,15.136,38.348C15.136,41.455,17.655,43.974,20.762,43.974Z"/>
</g>
  <g id="Semibold-M" transform="matrix(1.0,0.0,0.0,1.0,1997.0702419558625,1043.2902614871125)">  <path fill-rule="nonzero" stroke-dasharray="none" fill-opacity="1" stroke="none" stroke-linecap="round" stroke-linejoin="round" version="1.1" clip-rule="evenodd" xml:space="preserve" stroke-opacity="1" xmlns:xlink="http://www.w3.org/1999/xlink" xmlns:serif="http://www.serif.com/" fill="#000000" stroke-width="46.900001525878906" stroke-miterlimit="1.5" d="M79.063,33.502C79.063,25.957,72.94,19.834,65.395,19.834L29.564,19.834C22.019,19.834,15.896,25.957,15.896,33.502L15.896,66.8C15.896,74.345,22.019,80.468,29.564,80.468L65.395,80.468C72.94,80.468,79.063,74.345,79.063,66.8L79.063,33.502ZM69.621,33.502L69.621,66.8C69.621,69.131,67.726,71.026,65.395,71.026L29.564,71.026C27.233,71.026,25.338,69.131,25.338,66.8L25.338,33.502C25.338,31.171,27.233,29.276,29.564,29.276L65.395,29.276C67.726,29.276,69.621,31.171,69.621,33.502Z"/>
  <path clip-rule="evenodd" xmlns:serif="http://www.serif.com/" stroke-opacity="1" stroke-miterlimit="1.5" stroke-width="46.900001525878906" stroke-linejoin="round" fill="#000000" stroke="none" version="1.1" xml:space="preserve" fill-rule="nonzero" stroke-linecap="round" stroke-dasharray="none" fill-opacity="1" xmlns:xlink="http://www.w3.org/1999/xlink" d="M56.911,19.212L56.911,28.512C56.911,31.119,59.025,33.233,61.632,33.233C64.239,33.233,66.353,31.119,66.353,28.512L66.353,19.212C66.353,16.605,64.239,14.491,61.632,14.491C59.025,14.491,56.911,16.605,56.911,19.212Z"/>
  <path stroke-linecap="round" stroke-width="46.900001525878906" fill-opacity="1" xml:space="preserve" stroke-opacity="1" fill="#000000" fill-rule="nonzero" stroke="none" version="1.1" stroke-linejoin="round" stroke-miterlimit="1.5" clip-rule="evenodd" xmlns:serif="http://www.serif.com/" stroke-dasharray="none" xmlns:xlink="http://www.w3.org/1999/xlink" d="M29.494,19.212L29.494,28.512C29.494,31.119,31.608,33.233,34.215,33.233C36.823,33.233,38.936,31.119,38.936,28.512L38.936,19.212C38.936,16.605,36.823,14.491,34.215,14.491C31.608,14.491,29.494,16.605,29.494,19.212Z"/>
  <path clip-rule="evenodd" stroke="none" xmlns:xlink="http://www.w3.org/1999/xlink" stroke-miterlimit="1.5" fill="#000000" stroke-opacity="1" xml:space="preserve" stroke-linecap="round" stroke-width="48.04999923706055" fill-opacity="1" stroke-linejoin="round" stroke-dasharray="none" xmlns:serif="http://www.serif.com/" fill-rule="nonzero" version="1.1" d="M20.762,43.185L71.883,43.185C74.554,43.185,76.719,41.019,76.719,38.348C76.719,35.677,74.554,33.512,71.883,33.512L20.762,33.512C18.09,33.512,15.925,35.677,15.925,38.348C15.925,41.019,18.09,43.185,20.762,43.185Z"/>
</g>
  <g id="Medium-M" transform="matrix(1.0,0.0,0.0,1.0,1700.3602419558624,1043.2902614871125)">  <path stroke-linejoin="round" xmlns:serif="http://www.serif.com/" stroke-width="46.900001525878906" fill-rule="nonzero" stroke="none" stroke-dasharray="none" version="1.1" stroke-miterlimit="1.5" stroke-linecap="round" xmlns:xlink="http://www.w3.org/1999/xlink" fill-opacity="1" clip-rule="evenodd" fill="#000000" xml:space="preserve" stroke-opacity="1" d="M78.293,33.502C78.293,26.382,72.515,20.604,65.395,20.604L29.564,20.604C22.444,20.604,16.666,26.382,16.666,33.502L16.666,66.8C16.666,73.92,22.444,79.698,29.564,79.698L65.395,79.698C72.515,79.698,78.293,73.92,78.293,66.8L78.293,33.502ZM70.391,33.502L70.391,66.8C70.391,69.556,68.151,71.796,65.395,71.796L29.564,71.796C26.808,71.796,24.568,69.556,24.568,66.8L24.568,33.502C24.568,30.746,26.808,28.506,29.564,28.506L65.395,28.506C68.151,28.506,70.391,30.746,70.391,33.502Z"/>
  <path stroke="none" xml:space="preserve" stroke-width="46.900001525878906" fill-rule="nonzero" fill-opacity="1" xmlns:serif="http://www.serif.com/" xmlns:xlink="http://www.w3.org/1999/xlink" stroke-miterlimit="1.5" stroke-opacity="1" stroke-linejoin="round" fill="#000000" clip-rule="evenodd" version="1.1" stroke-linecap="round" stroke-dasharray="none" d="M57.681,19.212L57.681,28.512C57.681,30.694,59.45,32.463,61.632,32.463C63.814,32.463,65.583,30.694,65.583,28.512L65.583,19.212C65.583,17.03,63.814,15.261,61.632,15.261C59.45,15.261,57.681,17.03,57.681,19.212Z"/>
  <path version="1.1" stroke-linecap="round" xml:space="preserve" fill-rule="nonzero" fill-opacity="1" stroke-dasharray="none" stroke="none" xmlns:serif="http://www.serif.com/" xmlns:xlink="http://www.w3.org/1999/xlink" clip-rule="evenodd" stroke-opacity="1" stroke-miterlimit="1.5" fill="#000000" stroke-width="46.900001525878906" stroke-linejoin="round" d="M30.264,19.212L30.264,28.512C30.264,30.694,32.033,32.463,34.215,32.463C36.397,32.463,38.166,30.694,38.166,28.512L38.166,19.212C38.166,17.03,36.397,15.261,34.215,15.261C32.033,15.261,30.264,17.03,30.264,19.212Z"/>
  <path clip-rule="evenodd" stroke-opacity="1" stroke="none" fill="#000000" stroke-dasharray="none" xmlns:xlink="http://www.w3.org/1999/xlink" stroke-linecap="round" fill-opacity="1" stroke-linejoin="round" xml:space="preserve" fill-rule="nonzero" stroke-width="48.04999923706055" stroke-miterlimit="1.5" version="1.1" xmlns:serif="http://www.serif.com/" d="M20.762,42.396L71.883,42.396C74.118,42.396,75.931,40.584,75.931,38.348C75.931,36.113,74.118,34.3,71.883,34.3L20.762,34.3C18.526,34.3,16.714,36.113,16.714,38.348C16.714,40.584,18.526,42.396,20.762,42.396Z"/>
</g>
  <g id="Regular-M" transform="matrix(1.0,0.0,0.0,1.0,1403.6502419558624,1043.2902614871125)">  <path xmlns:serif="http://www.serif.com/" clip-rule="evenodd" stroke-width="46.900001525878906" stroke-opacity="1" stroke-linejoin="round" stroke-linecap="round" stroke-miterlimit="1.5" stroke-dasharray="none" fill-opacity="1" version="1.1" xml:space="preserve" stroke="none" fill-rule="nonzero" xmlns:xlink="http://www.w3.org/1999/xlink" fill="#000000" d="M77.523,33.502C77.523,26.807,72.09,21.374,65.395,21.374L29.564,21.374C22.869,21.374,17.436,26.807,17.436,33.502L17.436,66.8C17.436,73.495,22.869,78.928,29.564,78.928L65.395,78.928C72.09,78.928,77.523,73.495,77.523,66.8L77.523,33.502ZM71.161,33.502L71.161,66.8C71.161,69.981,68.576,72.566,65.395,72.566L29.564,72.566C26.383,72.566,23.798,69.981,23.798,66.8L23.798,33.502C23.798,30.321,26.383,27.736,29.564,27.736L65.395,27.736C68.576,27.736,71.161,30.321,71.161,33.502Z"/>
  <path stroke-linejoin="round" xmlns:xlink="http://www.w3.org/1999/xlink" stroke-miterlimit="1.5" clip-rule="evenodd" stroke="none" xmlns:serif="http://www.serif.com/" version="1.1" fill-opacity="1" fill="#000000" stroke-width="46.900001525878906" stroke-linecap="round" fill-rule="nonzero" xml:space="preserve" stroke-opacity="1" stroke-dasharray="none" d="M58.451,19.212L58.451,28.512C58.451,30.269,59.875,31.693,61.632,31.693C63.389,31.693,64.813,30.269,64.813,28.512L64.813,19.212C64.813,17.455,63.389,16.031,61.632,16.031C59.875,16.031,58.451,17.455,58.451,19.212Z"/>
  <path xmlns:serif="http://www.serif.com/" stroke-linecap="round" fill-opacity="1" stroke-width="46.900001525878906" xml:space="preserve" stroke-miterlimit="1.5" stroke-linejoin="round" fill="#000000" stroke="none" fill-rule="nonzero" version="1.1" stroke-opacity="1" clip-rule="evenodd" xmlns:xlink="http://www.w3.org/1999/xlink" stroke-dasharray="none" d="M31.034,19.212L31.034,28.512C31.034,30.269,32.458,31.693,34.215,31.693C35.972,31.693,37.396,30.269,37.396,28.512L37.396,19.212C37.396,17.455,35.972,16.031,34.215,16.031C32.458,16.031,31.034,17.455,31.034,19.212Z"/>
  <path fill-rule="nonzero" stroke-dasharray="none" stroke-miterlimit="1.5" stroke-width="48.04999923706055" version="1.1" stroke-linejoin="round" fill-opacity="1" xml:space="preserve" clip-rule="evenodd" fill="#000000" xmlns:xlink="http://www.w3.org/1999/xlink" stroke="none" stroke-opacity="1" stroke-linecap="round" xmlns:serif="http://www.serif.com/" d="M20.762,41.607L71.883,41.607C73.683,41.607,75.142,40.148,75.142,38.348C75.142,36.548,73.683,35.089,71.883,35.089L20.762,35.089C18.962,35.089,17.502,36.548,17.502,38.348C17.502,40.148,18.962,41.607,20.762,41.607Z"/>
</g>
  <g id="Light-M" transform="matrix(1.0,0.0,0.0,1.0,1106.9402419558626,1043.2902614871125)">  <path stroke-miterlimit="1.5" stroke-width="46.900001525878906" clip-rule="evenodd" stroke-dasharray="none" stroke-opacity="1" fill-opacity="1" stroke-linejoin="round" fill-rule="nonzero" version="1.1" stroke="none" stroke-linecap="round" fill="#000000" xmlns:xlink="http://www.w3.org/1999/xlink" xml:space="preserve" xmlns:serif="http://www.serif.com/" d="M76.993,33.502C76.993,27.1,71.797,21.904,65.395,21.904L29.564,21.904C23.162,21.904,17.966,27.1,17.966,33.502L17.966,66.8C17.966,73.202,23.162,78.398,29.564,78.398L65.395,78.398C71.797,78.398,76.993,73.202,76.993,66.8L76.993,33.502ZM71.691,33.502L71.691,66.8C71.691,70.274,68.869,73.096,65.395,73.096L29.564,73.096C26.09,73.096,23.268,70.274,23.268,66.8L23.268,33.502C23.268,30.028,26.09,27.206,29.564,27.206L65.395,27.206C68.869,27.206,71.691,30.028,71.691,33.502Z"/>
  <path stroke-width="46.900001525878906" fill-rule="nonzero" xml:space="preserve" stroke-linecap="round" stroke-miterlimit="1.5" stroke-dasharray="none" fill="#000000" stroke="none" fill-opacity="1" clip-rule="evenodd" stroke-opacity="1" version="1.1" xmlns:xlink="http://www.w3.org/1999/xlink" xmlns:serif="http://www.serif.com/" stroke-linejoin="round" d="M58.981,19.212L58.981,28.512C58.981,29.976,60.168,31.163,61.632,31.163C63.096,31.163,64.283,29.976,64.283,28.512L64.283,19.212C64.283,17.748,63.096,16.561,61.632,16.561C60.168,16.561,58.981,17.748,58.981,19.212Z"/>
  <path stroke="none" xmlns:serif="http://www.serif.com/" fill-rule="nonzero" stroke-dasharray="none" xml:space="preserve" stroke-linejoin="round" version="1.1" clip-rule="evenodd" stroke-linecap="round" stroke-miterlimit="1.5" stroke-opacity="1" xmlns:xlink="http://www.w3.org/1999/xlink" stroke-width="46.900001525878906" fill-opacity="1" fill="#000000" d="M31.564,19.212L31.564,28.512C31.564,29.976,32.751,31.163,34.215,31.163C35.679,31.163,36.866,29.976,36.866,28.512L36.866,19.212C36.866,17.748,35.679,16.561,34.215,16.561C32.751,16.561,31.564,17.748,31.564,19.212Z"/>
  <path version="1.1" fill="#000000" clip-rule="evenodd" stroke-opacity="1" stroke-linecap="round" fill-opacity="1" stroke-width="48.04999923706055" stroke-linejoin="round" xmlns:serif="http://www.serif.com/" stroke-dasharray="none" stroke-miterlimit="1.5" stroke="none" fill-rule="nonzero" xmlns:xlink="http://www.w3.org/1999/xlink" xml:space="preserve" d="M20.762,41.064L71.883,41.064C73.383,41.064,74.599,39.848,74.599,38.348C74.599,36.848,73.383,35.632,71.883,35.632L20.762,35.632C19.262,35.632,18.046,36.848,18.046,38.348C18.046,39.848,19.262,41.064,20.762,41.064Z"/>
</g>
  <g id="Thin-M" transform="matrix(1.0,0.0,0.0,1.0,810.2302419558625,1043.2902614871125)">  <path stroke-miterlimit="1.5" version="1.1" xmlns:xlink="http://www.w3.org/1999/xlink" fill-opacity="1" stroke-linejoin="round" xmlns:serif="http://www.serif.com/" fill-rule="nonzero" clip-rule="evenodd" xml:space="preserve" fill="#000000" stroke-linecap="round" stroke="none" stroke-dasharray="none" stroke-opacity="1" stroke-width="46.900001525878906" d="M76.463,33.502C76.463,27.393,71.504,22.434,65.395,22.434L29.564,22.434C23.455,22.434,18.496,27.393,18.496,33.502L18.496,66.8C18.496,72.909,23.455,77.868,29.564,77.868L65.395,77.868C71.504,77.868,76.463,72.909,76.463,66.8L76.463,33.502ZM72.222,33.502L72.222,66.8C72.222,70.567,69.162,73.626,65.395,73.626L29.564,73.626C25.797,73.626,22.738,70.567,22.738,66.8L22.738,33.502C22.738,29.735,25.797,26.675,29.564,26.675L65.395,26.675C69.162,26.675,72.222,29.735,72.222,33.502Z"/>
  <path xmlns:serif="http://www.serif.com/" stroke-width="46.900001525878906" xmlns:xlink="http://www.w3.org/1999/xlink" fill="#000000" stroke-opacity="1" fill-rule="nonzero" clip-rule="evenodd" stroke-linejoin="round" version="1.1" fill-opacity="1" stroke="none" stroke-dasharray="none" xml:space="preserve" stroke-linecap="round" stroke-miterlimit="1.5" d="M59.511,19.212L59.511,28.512C59.511,29.683,60.461,30.633,61.632,30.633C62.803,30.633,63.753,29.683,63.753,28.512L63.753,19.212C63.753,18.041,62.803,17.091,61.632,17.091C60.461,17.091,59.511,18.041,59.511,19.212Z"/>
  <path xml:space="preserve" fill-opacity="1" stroke-linecap="round" xmlns:serif="http://www.serif.com/" stroke-miterlimit="1.5" version="1.1" fill-rule="nonzero" stroke-dasharray="none" xmlns:xlink="http://www.w3.org/1999/xlink" clip-rule="evenodd" stroke-linejoin="round" stroke="none" fill="#000000" stroke-width="46.900001525878906" stroke-opacity="1" d="M32.095,19.212L32.095,28.512C32.095,29.683,33.044,30.633,34.215,30.633C35.387,30.633,36.336,29.683,36.336,28.512L36.336,19.212C36.336,18.041,35.387,17.091,34.215,17.091C33.044,17.091,32.095,18.041,32.095,19.212Z"/>
  <path stroke-dasharray="none" xmlns:serif="http://www.serif.com/" stroke-linejoin="round" stroke-opacity="1" stroke-miterlimit="1.5" stroke-width="48.04999923706055" version="1.1" stroke="none" fill-opacity="1" xml:space="preserve" clip-rule="evenodd" fill-rule="nonzero" stroke-linecap="round" fill="#000000" xmlns:xlink="http://www.w3.org/1999/xlink" d="M20.762,40.521L71.883,40.521C73.083,40.521,74.055,39.548,74.055,38.348C74.055,37.148,73.083,36.176,71.883,36.176L20.762,36.176C19.562,36.176,18.589,37.148,18.589,38.348C18.589,39.548,19.562,40.521,20.762,40.521Z"/>
</g>
  <g id="Ultralight-M" transform="matrix(1.0,0.0,0.0,1.0,513.5202419558625,1043.2902614871125)">  <path stroke="none" stroke-linejoin="round" stroke-dasharray="none" version="1.1" xmlns:xlink="http://www.w3.org/1999/xlink" xmlns:serif="http://www.serif.com/" stroke-linecap="round" fill-rule="nonzero" stroke-miterlimit="1.5" fill="#000000" stroke-width="46.900001525878906" stroke-opacity="1" xml:space="preserve" clip-rule="evenodd" fill-opacity="1" d="M75.933,33.502C75.933,27.685,71.212,22.964,65.395,22.964L29.564,22.964C23.748,22.964,19.026,27.685,19.026,33.502L19.026,66.8C19.026,72.616,23.748,77.338,29.564,77.338L65.395,77.338C71.212,77.338,75.933,72.616,75.933,66.8L75.933,33.502ZM72.752,33.502L72.752,66.8C72.752,70.859,69.455,74.156,65.395,74.156L29.564,74.156C25.505,74.156,22.207,70.859,22.207,66.8L22.207,33.502C22.207,29.442,25.505,26.145,29.564,26.145L65.395,26.145C69.455,26.145,72.752,29.442,72.752,33.502Z"/>
  <path fill-rule="nonzero" version="1.1" stroke-linecap="round" xmlns:serif="http://www.serif.com/" stroke-width="46.900001525878906" clip-rule="evenodd" fill-opacity="1" stroke="none" xml:space="preserve" stroke-dasharray="none" stroke-opacity="1" fill="#000000" stroke-linejoin="round" stroke-miterlimit="1.5" xmlns:xlink="http://www.w3.org/1999/xlink" d="M60.041,19.212L60.041,28.512C60.041,29.391,60.753,30.103,61.632,30.103C62.51,30.103,63.222,29.391,63.222,28.512L63.222,19.212C63.222,18.334,62.51,17.622,61.632,17.622C60.753,17.622,60.041,18.334,60.041,19.212Z"/>
  <path stroke-dasharray="none" stroke-linecap="round" stroke-opacity="1" xmlns:xlink="http://www.w3.org/1999/xlink" stroke="none" fill-rule="nonzero" xmlns:serif="http://www.serif.com/" fill="#000000" clip-rule="evenodd" xml:space="preserve" stroke-miterlimit="1.5" version="1.1" stroke-linejoin="round" stroke-width="46.900001525878906" fill-opacity="1" d="M32.625,19.212L32.625,28.512C32.625,29.391,33.337,30.103,34.215,30.103C35.094,30.103,35.806,29.391,35.806,28.512L35.806,19.212C35.806,18.334,35.094,17.622,34.215,17.622C33.337,17.622,32.625,18.334,32.625,19.212Z"/>
  <path xml:space="preserve" xmlns:serif="http://www.serif.com/" xmlns:xlink="http://www.w3.org/1999/xlink" fill-opacity="1" clip-rule="evenodd" stroke-opacity="1" fill-rule="nonzero" fill="#000000" stroke-linejoin="round" stroke-dasharray="none" stroke-linecap="round" stroke="none" stroke-width="48.04999923706055" version="1.1" stroke-miterlimit="1.5" d="M20.762,39.978L71.883,39.978C72.783,39.978,73.512,39.248,73.512,38.348C73.512,37.448,72.783,36.719,71.883,36.719L20.762,36.719C19.862,36.719,19.132,37.448,19.132,38.348C19.132,39.248,19.862,39.978,20.762,39.978Z"/>
</g>
  <g id="Black-S" transform="matrix(1.0,0.0,0.0,1.0,2897.50334945144,623.5933689826903)">  <path xmlns:xlink="http://www.w3.org/1999/xlink" stroke-opacity="1" version="1.1" xmlns:serif="http://www.serif.com/" clip-rule="evenodd" stroke-width="46.900001525878906" xml:space="preserve" stroke-miterlimit="1.5" stroke-dasharray="none" fill="#000000" fill-opacity="1" stroke="none" stroke-linecap="round" fill-rule="nonzero" stroke-linejoin="round" d="M63.715,26.232C63.715,19.325,58.111,13.722,51.204,13.722L23.149,13.722C16.242,13.722,10.638,19.325,10.638,26.232L10.638,52.304C10.638,59.211,16.242,64.815,23.149,64.815L51.204,64.815C58.111,64.815,63.715,59.211,63.715,52.304L63.715,26.232ZM52.705,26.232L52.705,52.304C52.705,53.131,52.031,53.805,51.204,53.805L23.149,53.805C22.322,53.805,21.648,53.131,21.648,52.304L21.648,26.232C21.648,25.406,22.322,24.731,23.149,24.731L51.204,24.731C52.031,24.731,52.705,25.406,52.705,26.232Z"/>
  <path version="1.1" stroke-miterlimit="1.5" xmlns:serif="http://www.serif.com/" stroke-linejoin="round" xmlns:xlink="http://www.w3.org/1999/xlink" fill="#000000" stroke="none" stroke-linecap="round" clip-rule="evenodd" fill-rule="nonzero" stroke-dasharray="none" fill-opacity="1" xml:space="preserve" stroke-opacity="1" stroke-width="46.900001525878906" d="M42.753,15.043L42.753,22.325C42.753,25.365,45.218,27.83,48.258,27.83C51.298,27.83,53.763,25.365,53.763,22.325L53.763,15.043C53.763,12.003,51.298,9.538,48.258,9.538C45.218,9.538,42.753,12.003,42.753,15.043Z"/>
  <path stroke-width="46.900001525878906" version="1.1" stroke-miterlimit="1.5" stroke-opacity="1" stroke-linecap="round" stroke-linejoin="round" clip-rule="evenodd" fill-opacity="1" xmlns:serif="http://www.serif.com/" stroke-dasharray="none" fill="#000000" xml:space="preserve" stroke="none" xmlns:xlink="http://www.w3.org/1999/xlink" fill-rule="nonzero" d="M21.286,15.043L21.286,22.325C21.286,25.365,23.75,27.83,26.791,27.83C29.831,27.83,32.295,25.365,32.295,22.325L32.295,15.043C32.295,12.003,29.831,9.538,26.791,9.538C23.75,9.538,21.286,12.003,21.286,15.043Z"/>
  <path fill="#000000" clip-rule="evenodd" fill-opacity="1" stroke-miterlimit="1.5" version="1.1" stroke-linecap="round" stroke-dasharray="none" stroke-linejoin="round" stroke-opacity="1" xmlns:xlink="http://www.w3.org/1999/xlink" fill-rule="nonzero" xmlns:serif="http://www.serif.com/" xml:space="preserve" stroke-width="48.04999923706055" stroke="none" d="M16.256,35.666L56.284,35.666C59.399,35.666,61.924,33.141,61.924,30.027C61.924,26.912,59.399,24.387,56.284,24.387L16.256,24.387C13.142,24.387,10.617,26.912,10.617,30.027C10.617,33.141,13.142,35.666,16.256,35.666Z"/>
</g>
  <g id="Heavy-S" transform="matrix(1.0,0.0,0.0,1.0,2600.79334945144,623.5933689826903)">  <path stroke-dasharray="none" fill-rule="nonzero" fill-opacity="1" stroke-linejoin="round" xmlns:serif="http://www.serif.com/" xml:space="preserve" clip-rule="evenodd" stroke-linecap="round" stroke-width="46.900001525878906" version="1.1" xmlns:xlink="http://www.w3.org/1999/xlink" stroke-opacity="1" stroke-miterlimit="1.5" fill="#000000" stroke="none" d="M63.112,26.232C63.112,19.658,57.778,14.324,51.204,14.324L23.149,14.324C16.575,14.324,11.241,19.658,11.241,26.232L11.241,52.304C11.241,58.878,16.575,64.212,23.149,64.212L51.204,64.212C57.778,64.212,63.112,58.878,63.112,52.304L63.112,26.232ZM53.308,26.232L53.308,52.304C53.308,53.463,52.364,54.408,51.204,54.408L23.149,54.408C21.99,54.408,21.045,53.463,21.045,52.304L21.045,26.232C21.045,25.073,21.99,24.128,23.149,24.128L51.204,24.128C52.364,24.128,53.308,25.073,53.308,26.232Z"/>
  <path fill-opacity="1" fill-rule="nonzero" stroke-dasharray="none" stroke-opacity="1" stroke-width="46.900001525878906" fill="#000000" xmlns:xlink="http://www.w3.org/1999/xlink" clip-rule="evenodd" stroke-miterlimit="1.5" stroke-linejoin="round" xmlns:serif="http://www.serif.com/" stroke="none" version="1.1" xml:space="preserve" stroke-linecap="round" d="M43.356,15.043L43.356,22.325C43.356,25.032,45.55,27.227,48.258,27.227C50.965,27.227,53.16,25.032,53.16,22.325L53.16,15.043C53.16,12.336,50.965,10.141,48.258,10.141C45.55,10.141,43.356,12.336,43.356,15.043Z"/>
  <path version="1.1" stroke-dasharray="none" stroke="none" xmlns:xlink="http://www.w3.org/1999/xlink" stroke-opacity="1" fill="#000000" stroke-linejoin="round" stroke-linecap="round" clip-rule="evenodd" xml:space="preserve" stroke-miterlimit="1.5" xmlns:serif="http://www.serif.com/" fill-rule="nonzero" fill-opacity="1" stroke-width="46.900001525878906" d="M21.889,15.043L21.889,22.325C21.889,25.032,24.083,27.227,26.791,27.227C29.498,27.227,31.693,25.032,31.693,22.325L31.693,15.043C31.693,12.336,29.498,10.141,26.791,10.141C24.083,10.141,21.889,12.336,21.889,15.043Z"/>
  <path xmlns:serif="http://www.serif.com/" stroke-width="48.04999923706055" stroke-linecap="round" fill-rule="nonzero" fill-opacity="1" stroke-dasharray="none" fill="#000000" xml:space="preserve" stroke-linejoin="round" stroke="none" stroke-opacity="1" stroke-miterlimit="1.5" xmlns:xlink="http://www.w3.org/1999/xlink" version="1.1" clip-rule="evenodd" d="M16.256,35.049L56.284,35.049C59.058,35.049,61.306,32.8,61.306,30.027C61.306,27.253,59.058,25.005,56.284,25.005L16.256,25.005C13.483,25.005,11.234,27.253,11.234,30.027C11.234,32.8,13.483,35.049,16.256,35.049Z"/>
</g>
  <g id="Bold-S" transform="matrix(1.0,0.0,0.0,1.0,2304.08334945144,623.5933689826903)">  <path fill-rule="nonzero" stroke-dasharray="none" stroke-linecap="round" fill-opacity="1" clip-rule="evenodd" stroke-opacity="1" xml:space="preserve" xmlns:xlink="http://www.w3.org/1999/xlink" xmlns:serif="http://www.serif.com/" version="1.1" stroke-linejoin="round" stroke="none" stroke-width="46.900001525878906" stroke-miterlimit="1.5" fill="#000000" d="M62.509,26.232C62.509,19.991,57.445,14.927,51.204,14.927L23.149,14.927C16.908,14.927,11.844,19.991,11.844,26.232L11.844,52.304C11.844,58.545,16.908,63.609,23.149,63.609L51.204,63.609C57.445,63.609,62.509,58.545,62.509,52.304L62.509,26.232ZM53.911,26.232L53.911,52.304C53.911,53.796,52.696,55.011,51.204,55.011L23.149,55.011C21.657,55.011,20.442,53.796,20.442,52.304L20.442,26.232C20.442,24.74,21.657,23.526,23.149,23.526L51.204,23.526C52.696,23.526,53.911,24.74,53.911,26.232Z"/>
  <path stroke-linecap="round" xmlns:serif="http://www.serif.com/" xml:space="preserve" clip-rule="evenodd" fill-rule="nonzero" fill-opacity="1" stroke="none" stroke-miterlimit="1.5" stroke-linejoin="round" stroke-dasharray="none" stroke-opacity="1" version="1.1" stroke-width="46.900001525878906" fill="#000000" xmlns:xlink="http://www.w3.org/1999/xlink" d="M43.959,15.043L43.959,22.325C43.959,24.699,45.883,26.624,48.258,26.624C50.632,26.624,52.557,24.699,52.557,22.325L52.557,15.043C52.557,12.669,50.632,10.744,48.258,10.744C45.883,10.744,43.959,12.669,43.959,15.043Z"/>
  <path xmlns:serif="http://www.serif.com/" stroke-linejoin="round" stroke-miterlimit="1.5" fill="#000000" stroke-dasharray="none" xml:space="preserve" fill-rule="nonzero" xmlns:xlink="http://www.w3.org/1999/xlink" clip-rule="evenodd" stroke-linecap="round" fill-opacity="1" stroke="none" stroke-width="46.900001525878906" version="1.1" stroke-opacity="1" d="M22.491,15.043L22.491,22.325C22.491,24.699,24.416,26.624,26.791,26.624C29.165,26.624,31.09,24.699,31.09,22.325L31.09,15.043C31.09,12.669,29.165,10.744,26.791,10.744C24.416,10.744,22.491,12.669,22.491,15.043Z"/>
  <path stroke-opacity="1" stroke-miterlimit="1.5" version="1.1" stroke-dasharray="none" stroke-width="48.04999923706055" xmlns:xlink="http://www.w3.org/1999/xlink" stroke-linejoin="round" xml:space="preserve" stroke-linecap="round" clip-rule="evenodd" xmlns:serif="http://www.serif.com/" fill-rule="nonzero" fill="#000000" stroke="none" fill-opacity="1" d="M16.256,34.431L56.284,34.431C58.717,34.431,60.689,32.459,60.689,30.027C60.689,27.594,58.717,25.622,56.284,25.622L16.256,25.622C13.824,25.622,11.852,27.594,11.852,30.027C11.852,32.459,13.824,34.431,16.256,34.431Z"/>
</g>
  <g id="Semibold-S" transform="matrix(1.0,0.0,0.0,1.0,2007.3733494514404,623.5933689826903)">  <path fill-rule="nonzero" stroke-dasharray="none" fill-opacity="1" stroke="none" stroke-linecap="round" stroke-linejoin="round" version="1.1" clip-rule="evenodd" xml:space="preserve" stroke-opacity="1" xmlns:xlink="http://www.w3.org/1999/xlink" xmlns:serif="http://www.serif.com/" fill="#000000" stroke-width="46.900001525878906" stroke-miterlimit="1.5" d="M61.906,26.232C61.906,20.324,57.112,15.53,51.204,15.53L23.149,15.53C17.241,15.53,12.447,20.324,12.447,26.232L12.447,52.304C12.447,58.212,17.241,63.006,23.149,63.006L51.204,63.006C57.112,63.006,61.906,58.212,61.906,52.304L61.906,26.232ZM54.514,26.232L54.514,52.304C54.514,54.129,53.029,55.614,51.204,55.614L23.149,55.614C21.324,55.614,19.839,54.129,19.839,52.304L19.839,26.232C19.839,24.407,21.324,22.923,23.149,22.923L51.204,22.923C53.029,22.923,54.514,24.407,54.514,26.232Z"/>
  <path clip-rule="evenodd" xmlns:serif="http://www.serif.com/" stroke-opacity="1" stroke-miterlimit="1.5" stroke-width="46.900001525878906" stroke-linejoin="round" fill="#000000" stroke="none" version="1.1" xml:space="preserve" fill-rule="nonzero" stroke-linecap="round" stroke-dasharray="none" fill-opacity="1" xmlns:xlink="http://www.w3.org/1999/xlink" d="M44.561,15.043L44.561,22.325C44.561,24.366,46.216,26.021,48.258,26.021C50.299,26.021,51.954,24.366,51.954,22.325L51.954,15.043C51.954,13.002,50.299,11.347,48.258,11.347C46.216,11.347,44.561,13.002,44.561,15.043Z"/>
  <path stroke-linecap="round" stroke-width="46.900001525878906" fill-opacity="1" xml:space="preserve" stroke-opacity="1" fill="#000000" fill-rule="nonzero" stroke="none" version="1.1" stroke-linejoin="round" stroke-miterlimit="1.5" clip-rule="evenodd" xmlns:serif="http://www.serif.com/" stroke-dasharray="none" xmlns:xlink="http://www.w3.org/1999/xlink" d="M23.094,15.043L23.094,22.325C23.094,24.366,24.749,26.021,26.791,26.021C28.832,26.021,30.487,24.366,30.487,22.325L30.487,15.043C30.487,13.002,28.832,11.347,26.791,11.347C24.749,11.347,23.094,13.002,23.094,15.043Z"/>
  <path clip-rule="evenodd" stroke="none" xmlns:xlink="http://www.w3.org/1999/xlink" stroke-miterlimit="1.5" fill="#000000" stroke-opacity="1" xml:space="preserve" stroke-linecap="round" stroke-width="48.04999923706055" fill-opacity="1" stroke-linejoin="round" stroke-dasharray="none" xmlns:serif="http://www.serif.com/" fill-rule="nonzero" version="1.1" d="M16.256,33.814L56.284,33.814C58.376,33.814,60.071,32.118,60.071,30.027C60.071,27.935,58.376,26.24,56.284,26.24L16.256,26.24C14.165,26.24,12.469,27.935,12.469,30.027C12.469,32.118,14.165,33.814,16.256,33.814Z"/>
</g>
  <g id="Medium-S" transform="matrix(1.0,0.0,0.0,1.0,1710.6633494514404,623.5933689826903)">  <path stroke-linejoin="round" xmlns:serif="http://www.serif.com/" stroke-width="46.900001525878906" fill-rule="nonzero" stroke="none" stroke-dasharray="none" version="1.1" stroke-miterlimit="1.5" stroke-linecap="round" xmlns:xlink="http://www.w3.org/1999/xlink" fill-opacity="1" clip-rule="evenodd" fill="#000000" xml:space="preserve" stroke-opacity="1" d="M61.304,26.232C61.304,20.657,56.779,16.133,51.204,16.133L23.149,16.133C17.574,16.133,13.049,20.657,13.049,26.232L13.049,52.304C13.049,57.879,17.574,62.404,23.149,62.404L51.204,62.404C56.779,62.404,61.304,57.879,61.304,52.304L61.304,26.232ZM55.116,26.232L55.116,52.304C55.116,54.462,53.362,56.216,51.204,56.216L23.149,56.216C20.991,56.216,19.237,54.462,19.237,52.304L19.237,26.232C19.237,24.074,20.991,22.32,23.149,22.32L51.204,22.32C53.362,22.32,55.116,24.074,55.116,26.232Z"/>
  <path stroke="none" xml:space="preserve" stroke-width="46.900001525878906" fill-rule="nonzero" fill-opacity="1" xmlns:serif="http://www.serif.com/" xmlns:xlink="http://www.w3.org/1999/xlink" stroke-miterlimit="1.5" stroke-opacity="1" stroke-linejoin="round" fill="#000000" clip-rule="evenodd" version="1.1" stroke-linecap="round" stroke-dasharray="none" d="M45.164,15.043L45.164,22.325C45.164,24.034,46.549,25.419,48.258,25.419C49.966,25.419,51.351,24.034,51.351,22.325L51.351,15.043C51.351,13.335,49.966,11.95,48.258,11.95C46.549,11.95,45.164,13.335,45.164,15.043Z"/>
  <path version="1.1" stroke-linecap="round" xml:space="preserve" fill-rule="nonzero" fill-opacity="1" stroke-dasharray="none" stroke="none" xmlns:serif="http://www.serif.com/" xmlns:xlink="http://www.w3.org/1999/xlink" clip-rule="evenodd" stroke-opacity="1" stroke-miterlimit="1.5" fill="#000000" stroke-width="46.900001525878906" stroke-linejoin="round" d="M23.697,15.043L23.697,22.325C23.697,24.034,25.082,25.419,26.791,25.419C28.499,25.419,29.884,24.034,29.884,22.325L29.884,15.043C29.884,13.335,28.499,11.95,26.791,11.95C25.082,11.95,23.697,13.335,23.697,15.043Z"/>
  <path clip-rule="evenodd" stroke-opacity="1" stroke="none" fill="#000000" stroke-dasharray="none" xmlns:xlink="http://www.w3.org/1999/xlink" stroke-linecap="round" fill-opacity="1" stroke-linejoin="round" xml:space="preserve" fill-rule="nonzero" stroke-width="48.04999923706055" stroke-miterlimit="1.5" version="1.1" xmlns:serif="http://www.serif.com/" d="M16.256,33.196L56.284,33.196C58.035,33.196,59.454,31.777,59.454,30.027C59.454,28.276,58.035,26.857,56.284,26.857L16.256,26.857C14.506,26.857,13.087,28.276,13.087,30.027C13.087,31.777,14.506,33.196,16.256,33.196Z"/>
</g>
  <g id="Regular-S" transform="matrix(1.0,0.0,0.0,1.0,1413.9533494514403,623.5933689826903)">  <path xmlns:serif="http://www.serif.com/" clip-rule="evenodd" stroke-width="46.900001525878906" stroke-opacity="1" stroke-linejoin="round" stroke-linecap="round" stroke-miterlimit="1.5" stroke-dasharray="none" fill-opacity="1" version="1.1" xml:space="preserve" stroke="none" fill-rule="nonzero" xmlns:xlink="http://www.w3.org/1999/xlink" fill="#000000" d="M60.701,26.232C60.701,20.99,56.446,16.735,51.204,16.735L23.149,16.735C17.907,16.735,13.652,20.99,13.652,26.232L13.652,52.304C13.652,57.546,17.907,61.801,23.149,61.801L51.204,61.801C56.446,61.801,60.701,57.546,60.701,52.304L60.701,26.232ZM55.719,26.232L55.719,52.304C55.719,54.795,53.695,56.819,51.204,56.819L23.149,56.819C20.658,56.819,18.634,54.795,18.634,52.304L18.634,26.232C18.634,23.741,20.658,21.717,23.149,21.717L51.204,21.717C53.695,21.717,55.719,23.741,55.719,26.232Z"/>
  <path stroke-linejoin="round" xmlns:xlink="http://www.w3.org/1999/xlink" stroke-miterlimit="1.5" clip-rule="evenodd" stroke="none" xmlns:serif="http://www.serif.com/" version="1.1" fill-opacity="1" fill="#000000" stroke-width="46.900001525878906" stroke-linecap="round" fill-rule="nonzero" xml:space="preserve" stroke-opacity="1" stroke-dasharray="none" d="M45.767,15.043L45.767,22.325C45.767,23.701,46.882,24.816,48.258,24.816C49.633,24.816,50.749,23.701,50.749,22.325L50.749,15.043C50.749,13.668,49.633,12.552,48.258,12.552C46.882,12.552,45.767,13.668,45.767,15.043Z"/>
  <path xmlns:serif="http://www.serif.com/" stroke-linecap="round" fill-opacity="1" stroke-width="46.900001525878906" xml:space="preserve" stroke-miterlimit="1.5" stroke-linejoin="round" fill="#000000" stroke="none" fill-rule="nonzero" version="1.1" stroke-opacity="1" clip-rule="evenodd" xmlns:xlink="http://www.w3.org/1999/xlink" stroke-dasharray="none" d="M24.3,15.043L24.3,22.325C24.3,23.701,25.415,24.816,26.791,24.816C28.166,24.816,29.281,23.701,29.281,22.325L29.281,15.043C29.281,13.668,28.166,12.552,26.791,12.552C25.415,12.552,24.3,13.668,24.3,15.043Z"/>
  <path fill-rule="nonzero" stroke-dasharray="none" stroke-miterlimit="1.5" stroke-width="48.04999923706055" version="1.1" stroke-linejoin="round" fill-opacity="1" xml:space="preserve" clip-rule="evenodd" fill="#000000" xmlns:xlink="http://www.w3.org/1999/xlink" stroke="none" stroke-opacity="1" stroke-linecap="round" xmlns:serif="http://www.serif.com/" d="M16.256,32.579L56.284,32.579C57.694,32.579,58.836,31.436,58.836,30.027C58.836,28.617,57.694,27.475,56.284,27.475L16.256,27.475C14.847,27.475,13.704,28.617,13.704,30.027C13.704,31.436,14.847,32.579,16.256,32.579Z"/>
</g>
  <g id="Light-S" transform="matrix(1.0,0.0,0.0,1.0,1117.2433494514405,623.5933689826903)">  <path stroke-miterlimit="1.5" stroke-width="46.900001525878906" clip-rule="evenodd" stroke-dasharray="none" stroke-opacity="1" fill-opacity="1" stroke-linejoin="round" fill-rule="nonzero" version="1.1" stroke="none" stroke-linecap="round" fill="#000000" xmlns:xlink="http://www.w3.org/1999/xlink" xml:space="preserve" xmlns:serif="http://www.serif.com/" d="M60.286,26.232C60.286,21.219,56.217,17.151,51.204,17.151L23.149,17.151C18.136,17.151,14.067,21.219,14.067,26.232L14.067,52.304C14.067,57.317,18.136,61.386,23.149,61.386L51.204,61.386C56.217,61.386,60.286,57.317,60.286,52.304L60.286,26.232ZM56.134,26.232L56.134,52.304C56.134,55.024,53.924,57.234,51.204,57.234L23.149,57.234C20.429,57.234,18.219,55.024,18.219,52.304L18.219,26.232C18.219,23.512,20.429,21.302,23.149,21.302L51.204,21.302C53.924,21.302,56.134,23.512,56.134,26.232Z"/>
  <path stroke-width="46.900001525878906" fill-rule="nonzero" xml:space="preserve" stroke-linecap="round" stroke-miterlimit="1.5" stroke-dasharray="none" fill="#000000" stroke="none" fill-opacity="1" clip-rule="evenodd" stroke-opacity="1" version="1.1" xmlns:xlink="http://www.w3.org/1999/xlink" xmlns:serif="http://www.serif.com/" stroke-linejoin="round" d="M46.182,15.043L46.182,22.325C46.182,23.471,47.111,24.401,48.258,24.401C49.404,24.401,50.333,23.471,50.333,22.325L50.333,15.043C50.333,13.897,49.404,12.967,48.258,12.967C47.111,12.967,46.182,13.897,46.182,15.043Z"/>
  <path stroke="none" xmlns:serif="http://www.serif.com/" fill-rule="nonzero" stroke-dasharray="none" xml:space="preserve" stroke-linejoin="round" version="1.1" clip-rule="evenodd" stroke-linecap="round" stroke-miterlimit="1.5" stroke-opacity="1" xmlns:xlink="http://www.w3.org/1999/xlink" stroke-width="46.900001525878906" fill-opacity="1" fill="#000000" d="M24.715,15.043L24.715,22.325C24.715,23.471,25.644,24.401,26.791,24.401C27.937,24.401,28.866,23.471,28.866,22.325L28.866,15.043C28.866,13.897,27.937,12.967,26.791,12.967C25.644,12.967,24.715,13.897,24.715,15.043Z"/>
  <path version="1.1" fill="#000000" clip-rule="evenodd" stroke-opacity="1" stroke-linecap="round" fill-opacity="1" stroke-width="48.04999923706055" stroke-linejoin="round" xmlns:serif="http://www.serif.com/" stroke-dasharray="none" stroke-miterlimit="1.5" stroke="none" fill-rule="nonzero" xmlns:xlink="http://www.w3.org/1999/xlink" xml:space="preserve" d="M16.256,32.153L56.284,32.153C57.459,32.153,58.411,31.201,58.411,30.027C58.411,28.852,57.459,27.9,56.284,27.9L16.256,27.9C15.082,27.9,14.13,28.852,14.13,30.027C14.13,31.201,15.082,32.153,16.256,32.153Z"/>
</g>
  <g id="Thin-S" transform="matrix(1.0,0.0,0.0,1.0,820.5333494514404,623.5933689826903)">  <path stroke-miterlimit="1.5" version="1.1" xmlns:xlink="http://www.w3.org/1999/xlink" fill-opacity="1" stroke-linejoin="round" xmlns:serif="http://www.serif.com/" fill-rule="nonzero" clip-rule="evenodd" xml:space="preserve" fill="#000000" stroke-linecap="round" stroke="none" stroke-dasharray="none" stroke-opacity="1" stroke-width="46.900001525878906" d="M59.871,26.232C59.871,21.448,55.988,17.566,51.204,17.566L23.149,17.566C18.365,17.566,14.482,21.448,14.482,26.232L14.482,52.304C14.482,57.088,18.365,60.971,23.149,60.971L51.204,60.971C55.988,60.971,59.871,57.088,59.871,52.304L59.871,26.232ZM56.549,26.232L56.549,52.304C56.549,55.254,54.154,57.649,51.204,57.649L23.149,57.649C20.199,57.649,17.804,55.254,17.804,52.304L17.804,26.232C17.804,23.283,20.199,20.887,23.149,20.887L51.204,20.887C54.154,20.887,56.549,23.283,56.549,26.232Z"/>
  <path xmlns:serif="http://www.serif.com/" stroke-width="46.900001525878906" xmlns:xlink="http://www.w3.org/1999/xlink" fill="#000000" stroke-opacity="1" fill-rule="nonzero" clip-rule="evenodd" stroke-linejoin="round" version="1.1" fill-opacity="1" stroke="none" stroke-dasharray="none" xml:space="preserve" stroke-linecap="round" stroke-miterlimit="1.5" d="M46.597,15.043L46.597,22.325C46.597,23.242,47.341,23.986,48.258,23.986C49.175,23.986,49.918,23.242,49.918,22.325L49.918,15.043C49.918,14.126,49.175,13.383,48.258,13.383C47.341,13.383,46.597,14.126,46.597,15.043Z"/>
  <path xml:space="preserve" fill-opacity="1" stroke-linecap="round" xmlns:serif="http://www.serif.com/" stroke-miterlimit="1.5" version="1.1" fill-rule="nonzero" stroke-dasharray="none" xmlns:xlink="http://www.w3.org/1999/xlink" clip-rule="evenodd" stroke-linejoin="round" stroke="none" fill="#000000" stroke-width="46.900001525878906" stroke-opacity="1" d="M25.13,15.043L25.13,22.325C25.13,23.242,25.873,23.986,26.791,23.986C27.708,23.986,28.451,23.242,28.451,22.325L28.451,15.043C28.451,14.126,27.708,13.383,26.791,13.383C25.873,13.383,25.13,14.126,25.13,15.043Z"/>
  <path stroke-dasharray="none" xmlns:serif="http://www.serif.com/" stroke-linejoin="round" stroke-opacity="1" stroke-miterlimit="1.5" stroke-width="48.04999923706055" version="1.1" stroke="none" fill-opacity="1" xml:space="preserve" clip-rule="evenodd" fill-rule="nonzero" stroke-linecap="round" fill="#000000" xmlns:xlink="http://www.w3.org/1999/xlink" d="M16.256,31.728L56.284,31.728C57.224,31.728,57.985,30.966,57.985,30.027C57.985,29.087,57.224,28.325,56.284,28.325L16.256,28.325C15.317,28.325,14.555,29.087,14.555,30.027C14.555,30.966,15.317,31.728,16.256,31.728Z"/>
</g>
  <g id="Ultralight-S" transform="matrix(1.0,0.0,0.0,1.0,523.8233494514403,623.5933689826903)">  <path stroke="none" stroke-linejoin="round" stroke-dasharray="none" version="1.1" xmlns:xlink="http://www.w3.org/1999/xlink" xmlns:serif="http://www.serif.com/" stroke-linecap="round" fill-rule="nonzero" stroke-miterlimit="1.5" fill="#000000" stroke-width="46.900001525878906" stroke-opacity="1" xml:space="preserve" clip-rule="evenodd" fill-opacity="1" d="M59.455,26.232C59.455,21.678,55.759,17.981,51.204,17.981L23.149,17.981C18.594,17.981,14.898,21.678,14.898,26.232L14.898,52.304C14.898,56.859,18.594,60.555,23.149,60.555L51.204,60.555C55.759,60.555,59.455,56.859,59.455,52.304L59.455,26.232ZM56.965,26.232L56.965,52.304C56.965,55.483,54.383,58.065,51.204,58.065L23.149,58.065C19.97,58.065,17.388,55.483,17.388,52.304L17.388,26.232C17.388,23.053,19.97,20.472,23.149,20.472L51.204,20.472C54.383,20.472,56.965,23.053,56.965,26.232Z"/>
  <path fill-rule="nonzero" version="1.1" stroke-linecap="round" xmlns:serif="http://www.serif.com/" stroke-width="46.900001525878906" clip-rule="evenodd" fill-opacity="1" stroke="none" xml:space="preserve" stroke-dasharray="none" stroke-opacity="1" fill="#000000" stroke-linejoin="round" stroke-miterlimit="1.5" xmlns:xlink="http://www.w3.org/1999/xlink" d="M47.012,15.043L47.012,22.325C47.012,23.013,47.57,23.57,48.258,23.57C48.946,23.57,49.503,23.013,49.503,22.325L49.503,15.043C49.503,14.355,48.946,13.798,48.258,13.798C47.57,13.798,47.012,14.355,47.012,15.043Z"/>
  <path stroke-dasharray="none" stroke-linecap="round" stroke-opacity="1" xmlns:xlink="http://www.w3.org/1999/xlink" stroke="none" fill-rule="nonzero" xmlns:serif="http://www.serif.com/" fill="#000000" clip-rule="evenodd" xml:space="preserve" stroke-miterlimit="1.5" version="1.1" stroke-linejoin="round" stroke-width="46.900001525878906" fill-opacity="1" d="M25.545,15.043L25.545,22.325C25.545,23.013,26.103,23.57,26.791,23.57C27.478,23.57,28.036,23.013,28.036,22.325L28.036,15.043C28.036,14.355,27.478,13.798,26.791,13.798C26.103,13.798,25.545,14.355,25.545,15.043Z"/>
  <path xml:space="preserve" xmlns:serif="http://www.serif.com/" xmlns:xlink="http://www.w3.org/1999/xlink" fill-opacity="1" clip-rule="evenodd" stroke-opacity="1" fill-rule="nonzero" fill="#000000" stroke-linejoin="round" stroke-dasharray="none" stroke-linecap="round" stroke="none" stroke-width="48.04999923706055" version="1.1" stroke-miterlimit="1.5" d="M16.256,31.303L56.284,31.303C56.989,31.303,57.56,30.731,57.56,30.027C57.56,29.322,56.989,28.751,56.284,28.751L16.256,28.751C15.552,28.751,14.98,29.322,14.98,30.027C14.98,30.731,15.552,31.303,16.256,31.303Z"/>
</g>
 </g>
</svg>
